<svg width="24" height="24" viewBox="0 0 24 24" fill="none" xmlns="http://www.w3.org/2000/svg">
<g clip-path="url(#clip0_119_13897)">
<path d="M23.2709 9.41879C22.3681 7.94051 21.2294 6.62004 19.8999 5.50979L22.6999 2.70979C22.882 2.52119 22.9828 2.26858 22.9805 2.00639C22.9783 1.74419 22.8731 1.49338 22.6877 1.30797C22.5023 1.12256 22.2515 1.01739 21.9893 1.01511C21.7271 1.01284 21.4745 1.11363 21.2859 1.29579L18.2409 4.34479C16.3533 3.22361 14.1953 2.63925 11.9999 2.65479C5.80887 2.65479 2.28087 6.89279 0.728868 9.41879C0.249396 10.1943 -0.00457764 11.088 -0.00457764 11.9998C-0.00457764 12.9115 0.249396 13.8053 0.728868 14.5808C1.63162 16.0591 2.77036 17.3795 4.09987 18.4898L1.29987 21.2898C1.20436 21.382 1.12818 21.4924 1.07577 21.6144C1.02336 21.7364 0.995772 21.8676 0.994618 22.0004C0.993464 22.1332 1.01877 22.2648 1.06905 22.3877C1.11933 22.5106 1.19358 22.6223 1.28747 22.7162C1.38137 22.8101 1.49302 22.8843 1.61591 22.9346C1.73881 22.9849 1.87049 23.0102 2.00327 23.009C2.13605 23.0079 2.26727 22.9803 2.38927 22.9279C2.51128 22.8755 2.62162 22.7993 2.71387 22.7038L5.76587 19.6518C7.65114 20.7728 9.80654 21.3581 11.9999 21.3448C18.1909 21.3448 21.7189 17.1068 23.2709 14.5808C23.7503 13.8053 24.0043 12.9115 24.0043 11.9998C24.0043 11.088 23.7503 10.1943 23.2709 9.41879V9.41879ZM2.43287 13.5338C2.148 13.0728 1.99712 12.5417 1.99712 11.9998C1.99712 11.4579 2.148 10.9267 2.43287 10.4658C3.76687 8.29979 6.78187 4.65479 11.9999 4.65479C13.6601 4.64549 15.2971 5.04563 16.7659 5.81979L14.7529 7.83279C13.7928 7.19539 12.6418 6.90978 11.4951 7.02443C10.3484 7.13908 9.27673 7.64693 8.46187 8.46179C7.64701 9.27665 7.13916 10.3483 7.02451 11.495C6.90986 12.6417 7.19547 13.7927 7.83287 14.7528L5.52287 17.0628C4.29797 16.0725 3.25271 14.8787 2.43287 13.5338V13.5338ZM14.9999 11.9998C14.9999 12.7954 14.6838 13.5585 14.1212 14.1211C13.5586 14.6837 12.7955 14.9998 11.9999 14.9998C11.5544 14.9981 11.1151 14.8955 10.7149 14.6998L14.6999 10.7148C14.8956 11.115 14.9981 11.5543 14.9999 11.9998V11.9998ZM8.99987 11.9998C8.99987 11.2041 9.31594 10.4411 9.87855 9.87847C10.4412 9.31586 11.2042 8.99979 11.9999 8.99979C12.4454 9.00151 12.8847 9.10408 13.2849 9.29979L9.29987 13.2848C9.10416 12.8846 9.00159 12.4453 8.99987 11.9998ZM21.5669 13.5338C20.2329 15.6998 17.2179 19.3448 11.9999 19.3448C10.3396 19.3541 8.70263 18.954 7.23387 18.1798L9.24687 16.1668C10.2069 16.8042 11.358 17.0898 12.5046 16.9751C13.6513 16.8605 14.723 16.3526 15.5379 15.5378C16.3527 14.7229 16.8606 13.6512 16.9752 12.5046C17.0899 11.3579 16.8043 10.2069 16.1669 9.24679L18.4769 6.93679C19.7018 7.92707 20.747 9.12084 21.5669 10.4658C21.8517 10.9267 22.0026 11.4579 22.0026 11.9998C22.0026 12.5417 21.8517 13.0728 21.5669 13.5338V13.5338Z" fill="#374957"/>
</g>
<defs>
<clipPath id="clip0_119_13897">
<rect width="24" height="24" fill="white"/>
</clipPath>
</defs>
</svg>
