<svg width="24" height="24" viewBox="0 0 24 24" fill="none" xmlns="http://www.w3.org/2000/svg">
<path d="M19.7831 12.079C19.6191 11.493 19.4341 10.873 19.2281 10.206C18.618 8.52425 18.2059 6.77715 18.0001 5.00003C18.0001 4.73481 18.1054 4.48046 18.2929 4.29292C18.4805 4.10539 18.7348 4.00003 19.0001 4.00003C19.2653 4.00003 19.5196 4.10539 19.7072 4.29292C19.8947 4.48046 20.0001 4.73481 20.0001 5.00003C20.0001 5.26525 20.1054 5.5196 20.2929 5.70714C20.4805 5.89467 20.7348 6.00003 21.0001 6.00003C21.2653 6.00003 21.5196 5.89467 21.7072 5.70714C21.8947 5.5196 22.0001 5.26525 22.0001 5.00003C22.0001 4.20438 21.684 3.44132 21.1214 2.87871C20.5588 2.3161 19.7957 2.00003 19.0001 2.00003C18.2044 2.00003 17.4413 2.3161 16.8787 2.87871C16.3161 3.44132 16.0001 4.20438 16.0001 5.00003C16.0248 5.76363 16.1318 6.52234 16.3191 7.26303L11.5191 11L5.97105 7.00003H9.00005C9.26527 7.00003 9.51962 6.89467 9.70716 6.70714C9.8947 6.5196 10.0001 6.26525 10.0001 6.00003C10.0001 5.73481 9.8947 5.48046 9.70716 5.29292C9.51962 5.10539 9.26527 5.00003 9.00005 5.00003H5.97105C5.55562 4.9999 5.15079 5.13118 4.81449 5.37508C4.47818 5.61897 4.22764 5.96299 4.0987 6.35791C3.96976 6.75283 3.96903 7.17841 4.09662 7.57376C4.22421 7.96912 4.47358 8.31399 4.80905 8.55903L9.88005 12.271L8.44205 13.39C7.54884 12.5491 6.37536 12.0694 5.14882 12.044C3.92228 12.0186 2.72992 12.4491 1.80262 13.2524C0.875313 14.0556 0.279022 15.1743 0.129198 16.3919C-0.0206271 17.6095 0.286672 18.8394 0.991598 19.8435C1.69652 20.8476 2.74893 21.5544 3.94505 21.827C5.14117 22.0997 6.39592 21.9188 7.46636 21.3195C8.5368 20.7201 9.34677 19.7449 9.73947 18.5827C10.1322 17.4204 10.0796 16.1538 9.59205 15.028L16.8811 9.35903C17.0221 9.83503 17.6081 11.743 17.7371 12.182C16.5418 12.4941 15.5046 13.2381 14.8259 14.2703C14.1472 15.3026 13.8751 16.5497 14.0623 17.7708C14.2495 18.9919 14.8827 20.1002 15.8394 20.8817C16.7961 21.6632 18.0086 22.0624 19.2425 22.0021C20.4763 21.9418 21.6441 21.4263 22.52 20.5552C23.396 19.6841 23.918 18.5193 23.9853 17.2858C24.0525 16.0523 23.6601 14.8376 22.884 13.8765C22.1079 12.9154 21.0031 12.2761 19.7831 12.082V12.079ZM5.00005 20C4.40671 20 3.82669 19.8241 3.33334 19.4944C2.83999 19.1648 2.45548 18.6963 2.22841 18.1481C2.00135 17.5999 1.94194 16.9967 2.0577 16.4148C2.17345 15.8328 2.45918 15.2983 2.87873 14.8787C3.29829 14.4592 3.83284 14.1734 4.41478 14.0577C4.99673 13.9419 5.59992 14.0013 6.1481 14.2284C6.69628 14.4555 7.16482 14.84 7.49446 15.3333C7.82411 15.8267 8.00005 16.4067 8.00005 17C8.00005 17.7957 7.68398 18.5587 7.12137 19.1214C6.55876 19.684 5.7957 20 5.00005 20ZM19.0001 20C18.4067 20 17.8267 19.8241 17.3333 19.4944C16.84 19.1648 16.4555 18.6963 16.2284 18.1481C16.0014 17.5999 15.9419 16.9967 16.0577 16.4148C16.1735 15.8328 16.4592 15.2983 16.8787 14.8787C17.2983 14.4592 17.8328 14.1734 18.4148 14.0577C18.9967 13.9419 19.5999 14.0013 20.1481 14.2284C20.6963 14.4555 21.1648 14.84 21.4945 15.3333C21.8241 15.8267 22.0001 16.4067 22.0001 17C22.0001 17.7957 21.684 18.5587 21.1214 19.1214C20.5588 19.684 19.7957 20 19.0001 20Z" fill="#374957"/>
</svg>
