<svg width="24" height="24" viewBox="0 0 24 24" fill="none" xmlns="http://www.w3.org/2000/svg">
<g clip-path="url(#clip0_119_13945)">
<path d="M10.0001 16C11.1047 16 12.0001 15.1046 12.0001 14C12.0001 12.8954 11.1047 12 10.0001 12C8.89555 12 8.00012 12.8954 8.00012 14C8.00012 15.1046 8.89555 16 10.0001 16Z" fill="#374957"/>
<path d="M5.70704 16.2928C5.51844 16.1106 5.26584 16.0098 5.00364 16.0121C4.74144 16.0144 4.49063 16.1196 4.30522 16.305C4.11981 16.4904 4.01465 16.7412 4.01237 17.0034C4.01009 17.2656 4.11088 17.5182 4.29304 17.7068L6.29304 19.7068C6.38529 19.8023 6.49563 19.8785 6.61764 19.9309C6.73964 19.9833 6.87086 20.0109 7.00364 20.012C7.13642 20.0132 7.2681 19.9879 7.39099 19.9376C7.51389 19.8873 7.62554 19.8131 7.71944 19.7192C7.81333 19.6253 7.88758 19.5136 7.93786 19.3907C7.98814 19.2678 8.01345 19.1362 8.01229 19.0034C8.01114 18.8706 7.98355 18.7394 7.93114 18.6174C7.87873 18.4954 7.80255 18.385 7.70704 18.2928L5.70704 16.2928Z" fill="#374957"/>
<path d="M23.482 0.518146C23.3179 0.353902 23.123 0.223609 22.9086 0.134713C22.6941 0.0458167 22.4642 6.10352e-05 22.232 6.10352e-05C21.9998 6.10352e-05 21.7699 0.0458167 21.5554 0.134713C21.341 0.223609 21.1461 0.353902 20.982 0.518146L20.768 0.732146C20.0418 1.46049 19.5137 2.36236 19.234 3.35215L16.259 6.32715C15.1612 5.43561 13.7794 4.96851 12.3659 5.01111C10.9523 5.0537 9.60113 5.60313 8.559 6.55915C8.39923 6.71811 8.25055 6.88785 8.114 7.06715C7.93491 7.32533 7.70445 7.54377 7.43706 7.70879C7.16966 7.8738 6.87107 7.98184 6.56 8.02615C4.8634 8.14096 3.26537 8.86469 2.06 10.0641C-0.896004 13.0211 -0.640004 18.0891 2.635 21.3641C4.26505 23.0253 6.48679 23.9731 8.814 24.0001C9.7615 24.0127 10.7021 23.8372 11.5813 23.4838C12.4605 23.1304 13.2608 22.606 13.936 21.9411C15.1355 20.7358 15.8592 19.1377 15.974 17.4411C16.0183 17.1301 16.1263 16.8315 16.2914 16.5641C16.4564 16.2967 16.6748 16.0662 16.933 15.8871C17.1123 15.7506 17.282 15.6019 17.441 15.4421C18.3959 14.3994 18.9445 13.0485 18.9871 11.6352C19.0297 10.222 18.5634 8.84047 17.673 7.74215L20.648 4.76715C21.6378 4.48743 22.5397 3.95939 23.268 3.23315L23.482 3.01915C23.6464 2.85503 23.7768 2.6601 23.8658 2.44553C23.9548 2.23095 24.0006 2.00094 24.0006 1.76865C24.0006 1.53635 23.9548 1.30634 23.8658 1.09176C23.7768 0.877189 23.6464 0.682265 23.482 0.518146V0.518146ZM16.027 14.0271C15.9332 14.1223 15.833 14.2109 15.727 14.2921C15.24 14.6375 14.8324 15.0829 14.5314 15.5986C14.2305 16.1142 14.0432 16.6882 13.982 17.2821C13.9023 18.5023 13.3845 19.6525 12.524 20.5211C10.349 22.6961 6.549 22.4411 4.056 19.9471C1.563 17.4531 1.3 13.6551 3.479 11.4791C4.34763 10.6186 5.49788 10.1008 6.718 10.0211C7.3119 9.95998 7.88589 9.77266 8.40155 9.47172C8.9172 9.17078 9.36262 8.76316 9.708 8.27615C9.78929 8.17014 9.87783 8.0699 9.973 7.97615C10.2956 7.65943 10.6781 7.41005 11.098 7.24249C11.5179 7.07493 11.9669 6.99255 12.419 7.00015C13.2799 7.01108 14.1191 7.27237 14.834 7.75215L13.293 9.29315C13.1975 9.38539 13.1213 9.49574 13.0689 9.61774C13.0165 9.73975 12.9889 9.87097 12.9877 10.0037C12.9866 10.1365 13.0119 10.2682 13.0622 10.3911C13.1125 10.514 13.1867 10.6256 13.2806 10.7195C13.3745 10.8134 13.4861 10.8877 13.609 10.938C13.7319 10.9882 13.8636 11.0136 13.9964 11.0124C14.1292 11.0112 14.2604 10.9837 14.3824 10.9312C14.5044 10.8788 14.6148 10.8027 14.707 10.7071L16.245 9.16915C16.7717 9.88095 17.0375 10.7522 16.9978 11.6368C16.9581 12.5214 16.6153 13.3654 16.027 14.0271Z" fill="#374957"/>
</g>
<defs>
<clipPath id="clip0_119_13945">
<rect width="24" height="24" fill="white"/>
</clipPath>
</defs>
</svg>
