<svg width="24" height="24" viewBox="0 0 24 24" fill="none" xmlns="http://www.w3.org/2000/svg">
<g clip-path="url(#clip0_119_13860)">
<path d="M23.6788 11.4081C22.8945 9.56645 21.664 7.94907 20.0983 6.70186C18.5327 5.45465 16.6812 4.61686 14.7108 4.26409C14.9246 3.8078 15.0199 3.30491 14.9877 2.80203C14.9554 2.29914 14.7968 1.81252 14.5265 1.38725C14.2561 0.961985 13.8828 0.611833 13.4412 0.369237C12.9995 0.126641 12.5037 -0.000549316 11.9998 -0.000549316C11.4959 -0.000549316 11.0001 0.126641 10.5584 0.369237C10.1167 0.611833 9.74344 0.961985 9.4731 1.38725C9.20276 1.81252 9.04413 2.29914 9.01191 2.80203C8.9797 3.30491 9.07493 3.8078 9.28879 4.26409C7.319 4.61741 5.46812 5.45543 3.90304 6.70261C2.33797 7.94978 1.10791 9.56688 0.323789 11.4081C0.0630125 12.023 -0.0412389 12.693 0.0203646 13.358C0.0819681 14.0231 0.307504 14.6625 0.676789 15.2191C1.03325 15.7536 1.51353 16.1941 2.07679 16.5031L2.67679 19.8751C2.88101 21.0319 3.48658 22.0797 4.38701 22.8342C5.28744 23.5887 6.42506 24.0015 7.59979 24.0001H16.3998C17.5745 24.0017 18.712 23.5889 19.6123 22.8343C20.5126 22.0798 21.118 21.0319 21.3218 19.8751L21.9218 16.5041C22.4854 16.1955 22.9658 15.7549 23.3218 15.2201C23.6916 14.6637 23.9178 14.0242 23.9801 13.359C24.0424 12.6938 23.9389 12.0235 23.6788 11.4081V11.4081ZM11.9998 2.00009C12.265 2.00009 12.5194 2.10544 12.7069 2.29298C12.8944 2.48052 12.9998 2.73487 12.9998 3.00009C12.9998 3.2653 12.8944 3.51966 12.7069 3.70719C12.5194 3.89473 12.265 4.00009 11.9998 4.00009C11.7346 4.00009 11.4802 3.89473 11.2927 3.70719C11.1051 3.51966 10.9998 3.2653 10.9998 3.00009C10.9998 2.73487 11.1051 2.48052 11.2927 2.29298C11.4802 2.10544 11.7346 2.00009 11.9998 2.00009V2.00009ZM19.3568 19.5251C19.2334 20.2194 18.8694 20.848 18.3286 21.3006C17.7879 21.7532 17.105 22.0009 16.3998 22.0001H7.59979C6.89514 22.0002 6.21295 21.7522 5.67282 21.2996C5.1327 20.8471 4.7691 20.2189 4.64579 19.5251L4.27479 17.4451C4.82984 17.8338 5.50014 18.0231 6.17653 17.9823C6.85292 17.9414 7.49556 17.6728 7.99979 17.2201C8.5488 17.7141 9.26123 17.9875 9.99979 17.9875C10.7383 17.9875 11.4508 17.7141 11.9998 17.2201C12.5488 17.7141 13.2612 17.9875 13.9998 17.9875C14.7383 17.9875 15.4508 17.7141 15.9998 17.2201C16.5042 17.6735 17.1475 17.9426 17.8245 17.9835C18.5016 18.0243 19.1725 17.8345 19.7278 17.4451L19.3568 19.5251ZM21.6568 14.1121C21.4774 14.3874 21.2316 14.613 20.942 14.7682C20.6524 14.9234 20.3283 15.0032 19.9998 15.0001C19.7635 15.0104 19.5321 15.0716 19.3216 15.1795C19.111 15.2873 18.9262 15.4393 18.7798 15.6251C18.685 15.7403 18.566 15.833 18.4311 15.8967C18.2962 15.9604 18.1489 15.9934 17.9998 15.9934C17.8506 15.9934 17.7033 15.9604 17.5685 15.8967C17.4336 15.833 17.3145 15.7403 17.2198 15.6251C17.0772 15.4364 16.8929 15.2834 16.6812 15.178C16.4695 15.0726 16.2363 15.0177 15.9998 15.0177C15.7633 15.0177 15.5301 15.0726 15.3184 15.178C15.1067 15.2834 14.9223 15.4364 14.7798 15.6251C14.685 15.7403 14.566 15.833 14.4311 15.8967C14.2962 15.9604 14.1489 15.9934 13.9998 15.9934C13.8506 15.9934 13.7033 15.9604 13.5685 15.8967C13.4336 15.833 13.3145 15.7403 13.2198 15.6251C13.0772 15.4364 12.8929 15.2834 12.6812 15.178C12.4695 15.0726 12.2363 15.0177 11.9998 15.0177C11.7633 15.0177 11.5301 15.0726 11.3184 15.178C11.1067 15.2834 10.9223 15.4364 10.7798 15.6251C10.685 15.7403 10.566 15.833 10.4311 15.8967C10.2962 15.9604 10.1489 15.9934 9.99979 15.9934C9.85064 15.9934 9.70335 15.9604 9.56849 15.8967C9.43362 15.833 9.31454 15.7403 9.21979 15.6251C9.07725 15.4364 8.89289 15.2834 8.6812 15.178C8.46951 15.0726 8.23626 15.0177 7.99979 15.0177C7.76332 15.0177 7.53007 15.0726 7.31838 15.178C7.10669 15.2834 6.92233 15.4364 6.77979 15.6251C6.68504 15.7403 6.56596 15.833 6.43109 15.8967C6.29623 15.9604 6.14893 15.9934 5.99979 15.9934C5.85064 15.9934 5.70335 15.9604 5.56849 15.8967C5.43362 15.833 5.31454 15.7403 5.21979 15.6251C5.07342 15.4392 4.88864 15.2871 4.67808 15.1793C4.46752 15.0714 4.23615 15.0103 3.99979 15.0001C3.67139 15.0031 3.34753 14.9233 3.05811 14.7681C2.76868 14.6129 2.52302 14.3873 2.34379 14.1121C2.15486 13.8314 2.03963 13.5077 2.00869 13.1707C1.97776 12.8338 2.03213 12.4945 2.16679 12.1841C5.43379 3.98409 18.5668 3.98409 21.8348 12.1841C21.9694 12.4945 22.0238 12.8338 21.9929 13.1707C21.9619 13.5077 21.8467 13.8314 21.6578 14.1121H21.6568Z" fill="#374957"/>
</g>
<defs>
<clipPath id="clip0_119_13860">
<rect width="24" height="24" fill="white"/>
</clipPath>
</defs>
</svg>
