<svg width="24" height="24" viewBox="0 0 24 24" fill="none" xmlns="http://www.w3.org/2000/svg">
<path d="M22.751 17.411L13.643 10.941C16.282 8.77501 17.487 7.78101 16.818 4.85401C16.401 3.03201 14.956 1.58601 13.134 1.17001C11.62 0.825009 10.066 1.17001 8.875 2.12201C7.683 3.07201 7 4.49101 7 6.01301C7 6.56501 7.448 7.01301 8 7.01301C8.552 7.01301 9 6.56501 9 6.01301C9 5.10201 9.409 4.25401 10.122 3.68501C10.846 3.10701 11.757 2.90601 12.69 3.12001C13.751 3.36201 14.627 4.23801 14.869 5.29901C15.252 6.97701 15.017 7.22601 12.364 9.40501L11.396 10.204L1.222 17.431C0.457 18.014 0 18.937 0 19.898C0 21.608 1.392 23 3.102 23H20.898C22.608 23 24 21.608 24 19.898C24 18.937 23.543 18.014 22.751 17.411ZM20.898 21H3.102C2.494 21 2 20.506 2 19.898C2 19.557 2.163 19.229 2.407 19.042L12 12.227L21.565 19.022C21.837 19.229 22 19.557 22 19.898C22 20.506 21.506 21 20.898 21Z" fill="#374957"/>
</svg>
