<svg width="24" height="24" viewBox="0 0 24 24" fill="none" xmlns="http://www.w3.org/2000/svg">
<g clip-path="url(#clip0_119_13790)">
<path d="M17.9942 2.2861C16.7736 1.19564 15.2788 0.458685 13.6706 0.154533C12.0623 -0.149619 10.4016 -0.00944811 8.86709 0.559961C7.33259 1.12937 5.98241 2.10646 4.96186 3.38607C3.94132 4.66569 3.28904 6.19938 3.07523 7.8221C2.88321 9.24495 3.03679 10.6931 3.52295 12.044C4.00912 13.395 4.81357 14.6089 5.86823 15.5831C6.52043 16.155 7.04671 16.8562 7.41372 17.6422C7.78072 18.4282 7.98045 19.2819 8.00023 20.1491V20.3101C8.00129 21.2884 8.3904 22.2264 9.08218 22.9182C9.77396 23.6099 10.7119 23.999 11.6902 24.0001H12.3102C13.2886 23.999 14.2265 23.6099 14.9183 22.9182C15.6101 22.2264 15.9992 21.2884 16.0002 20.3101V19.7611C16.0152 18.9946 16.1956 18.2403 16.529 17.5499C16.8625 16.8596 17.3411 16.2494 17.9322 15.7611C18.8908 14.9215 19.6601 13.8879 20.189 12.7286C20.718 11.5693 20.9945 10.3108 21.0004 9.03657C21.0062 7.76232 20.7413 6.50137 20.223 5.33726C19.7048 4.17314 18.9451 3.13244 17.9942 2.2841V2.2861ZM12.3102 22.0001H11.6902C11.2422 21.9996 10.8126 21.8213 10.4958 21.5045C10.179 21.1877 10.0008 20.7582 10.0002 20.3101C10.0002 20.3101 9.99323 20.0501 9.99223 20.0001H14.0002V20.3101C13.9997 20.7582 13.8215 21.1877 13.5047 21.5045C13.1878 21.8213 12.7583 21.9996 12.3102 22.0001V22.0001ZM16.6102 14.2591C15.4717 15.2466 14.6494 16.5479 14.2462 18.0001H13.0002V10.8161C13.5831 10.61 14.0881 10.2289 14.4461 9.7248C14.8041 9.22073 14.9977 8.61836 15.0002 8.0001C15.0002 7.73489 14.8949 7.48053 14.7073 7.293C14.5198 7.10546 14.2655 7.0001 14.0002 7.0001C13.735 7.0001 13.4807 7.10546 13.2931 7.293C13.1056 7.48053 13.0002 7.73489 13.0002 8.0001C13.0002 8.26532 12.8949 8.51967 12.7073 8.70721C12.5198 8.89475 12.2655 9.0001 12.0002 9.0001C11.735 9.0001 11.4807 8.89475 11.2931 8.70721C11.1056 8.51967 11.0002 8.26532 11.0002 8.0001C11.0002 7.73489 10.8949 7.48053 10.7073 7.293C10.5198 7.10546 10.2655 7.0001 10.0002 7.0001C9.73502 7.0001 9.48066 7.10546 9.29313 7.293C9.10559 7.48053 9.00023 7.73489 9.00023 8.0001C9.0028 8.61836 9.19632 9.22073 9.55432 9.7248C9.91233 10.2289 10.4173 10.61 11.0002 10.8161V18.0001H9.67823C9.22722 16.5093 8.38135 15.1683 7.23023 14.1191C6.25319 13.2087 5.55696 12.0378 5.2237 10.7446C4.89045 9.45137 4.93408 8.08982 5.34944 6.8206C5.76481 5.55137 6.53457 4.42745 7.5679 3.58147C8.60123 2.73548 9.85499 2.20274 11.1812 2.0461C11.4562 2.01541 11.7326 2.00005 12.0092 2.0001C13.7268 1.995 15.3849 2.62873 16.6612 3.7781C17.4009 4.4377 17.992 5.24699 18.3952 6.15233C18.7984 7.05766 19.0046 8.03837 19 9.02942C18.9955 10.0205 18.7803 10.9993 18.3689 11.9009C17.9574 12.8025 17.3589 13.6063 16.6132 14.2591H16.6102Z" fill="#374957"/>
</g>
<defs>
<clipPath id="clip0_119_13790">
<rect width="24" height="24" fill="white"/>
</clipPath>
</defs>
</svg>
