<svg width="24" height="24" viewBox="0 0 24 24" fill="none" xmlns="http://www.w3.org/2000/svg">
<g clip-path="url(#clip0_119_13989)">
<path d="M3.99987 6.00012C3.60562 6.00115 3.21508 5.924 2.85084 5.77312C2.48661 5.62224 2.1559 5.40063 1.87787 5.12112L0.333868 3.74712C0.135751 3.57048 0.0159167 3.32238 0.000726292 3.05739C-0.0144642 2.7924 0.076234 2.53223 0.252868 2.33412C0.429502 2.136 0.677604 2.01616 0.942593 2.00097C1.20758 1.98578 1.46775 2.07648 1.66587 2.25312L3.25087 3.66712C3.3416 3.76901 3.45223 3.85126 3.57595 3.90881C3.69966 3.96635 3.83384 3.99797 3.97023 4.00171C4.10661 4.00546 4.24233 3.98126 4.36901 3.93059C4.4957 3.87993 4.61067 3.80388 4.70687 3.70712L8.31087 0.276116C8.50466 0.103586 8.75793 0.0131348 9.01717 0.0238668C9.27642 0.0345988 9.52134 0.145674 9.70021 0.333631C9.87908 0.521588 9.97789 0.77171 9.97578 1.03117C9.97366 1.29062 9.87078 1.5391 9.68887 1.72412L6.09987 5.13812C5.82364 5.41273 5.49599 5.63021 5.13566 5.77812C4.77533 5.92603 4.38937 6.00147 3.99987 6.00012V6.00012ZM23.9999 4.00012C23.9999 3.7349 23.8945 3.48055 23.707 3.29301C23.5194 3.10547 23.2651 3.00012 22.9999 3.00012H12.9999C12.7347 3.00012 12.4803 3.10547 12.2928 3.29301C12.1052 3.48055 11.9999 3.7349 11.9999 4.00012C11.9999 4.26533 12.1052 4.51969 12.2928 4.70722C12.4803 4.89476 12.7347 5.00012 12.9999 5.00012H22.9999C23.2651 5.00012 23.5194 4.89476 23.707 4.70722C23.8945 4.51969 23.9999 4.26533 23.9999 4.00012ZM6.09987 13.1381L9.68887 9.72412C9.78904 9.63494 9.87025 9.52652 9.92766 9.40531C9.98508 9.2841 10.0175 9.15259 10.0231 9.01858C10.0286 8.88458 10.0072 8.75083 9.95995 8.62529C9.91275 8.49976 9.84078 8.385 9.74833 8.28784C9.65587 8.19069 9.54481 8.11312 9.42177 8.05977C9.29872 8.00641 9.1662 7.97835 9.03208 7.97725C8.89797 7.97616 8.76501 8.00206 8.64111 8.0534C8.51721 8.10474 8.4049 8.18048 8.31087 8.27612L4.71087 11.7071C4.5205 11.8891 4.26726 11.9907 4.00387 11.9907C3.74048 11.9907 3.48724 11.8891 3.29687 11.7071L1.70687 10.1221C1.51827 9.93996 1.26566 9.83916 1.00347 9.84144C0.74127 9.84372 0.490458 9.94889 0.30505 10.1343C0.119641 10.3197 0.0144726 10.5705 0.0121941 10.8327C0.00991571 11.0949 0.11071 11.3475 0.292868 11.5361L1.87787 13.1211C2.43754 13.6809 3.19578 13.9968 3.98737 14C4.77895 14.0032 5.53971 13.6934 6.10387 13.1381H6.09987ZM23.9999 12.0001C23.9999 11.7349 23.8945 11.4805 23.707 11.293C23.5194 11.1055 23.2651 11.0001 22.9999 11.0001H12.9999C12.7347 11.0001 12.4803 11.1055 12.2928 11.293C12.1052 11.4805 11.9999 11.7349 11.9999 12.0001C11.9999 12.2653 12.1052 12.5197 12.2928 12.7072C12.4803 12.8948 12.7347 13.0001 12.9999 13.0001H22.9999C23.2651 13.0001 23.5194 12.8948 23.707 12.7072C23.8945 12.5197 23.9999 12.2653 23.9999 12.0001ZM6.09987 21.1381L9.68487 17.7241C9.78504 17.6349 9.86625 17.5265 9.92366 17.4053C9.98108 17.2841 10.0135 17.1526 10.0191 17.0186C10.0246 16.8846 10.0032 16.7508 9.95595 16.6253C9.90875 16.4998 9.83678 16.385 9.74433 16.2878C9.65187 16.1907 9.54081 16.1131 9.41777 16.0598C9.29472 16.0064 9.1622 15.9783 9.02808 15.9773C8.89397 15.9762 8.76101 16.0021 8.63711 16.0534C8.51321 16.1047 8.4009 16.1805 8.30687 16.2761L4.70687 19.7071C4.61067 19.8039 4.4957 19.8799 4.36901 19.9306C4.24233 19.9813 4.10661 20.0055 3.97023 20.0017C3.83384 19.998 3.69966 19.9664 3.57595 19.9088C3.45223 19.8513 3.3416 19.769 3.25087 19.6671L1.66587 18.2531C1.46775 18.0765 1.20758 17.9858 0.942593 18.001C0.677604 18.0162 0.429502 18.136 0.252868 18.3341C0.076234 18.5322 -0.0144642 18.7924 0.000726292 19.0574C0.0159167 19.3224 0.135751 19.5705 0.333868 19.7471L1.87787 21.1211C2.43754 21.6809 3.19578 21.9968 3.98737 22C4.77895 22.0032 5.53971 21.6934 6.10387 21.1381H6.09987ZM23.9999 20.0001C23.9999 19.7349 23.8945 19.4805 23.707 19.293C23.5194 19.1055 23.2651 19.0001 22.9999 19.0001H12.9999C12.7347 19.0001 12.4803 19.1055 12.2928 19.293C12.1052 19.4805 11.9999 19.7349 11.9999 20.0001C11.9999 20.2653 12.1052 20.5197 12.2928 20.7072C12.4803 20.8948 12.7347 21.0001 12.9999 21.0001H22.9999C23.2651 21.0001 23.5194 20.8948 23.707 20.7072C23.8945 20.5197 23.9999 20.2653 23.9999 20.0001Z" fill="#374957"/>
</g>
<defs>
<clipPath id="clip0_119_13989">
<rect width="24" height="24" fill="white"/>
</clipPath>
</defs>
</svg>
