<svg width="24" height="24" viewBox="0 0 24 24" fill="none" xmlns="http://www.w3.org/2000/svg">
<g clip-path="url(#clip0_119_13866)">
<path d="M20.0002 0.000196997H18.2432C17.7175 -0.00119256 17.1969 0.101676 16.7113 0.302849C16.2257 0.504022 15.7848 0.799505 15.4142 1.1722L12.1722 4.4142C11.424 5.16553 11.0028 6.1819 11.0002 7.2422V10.7052C7.73415 13.1202 3.41915 16.3382 2.87915 16.8792C2.44405 17.3172 2.15504 17.8791 2.05175 18.4877C1.94845 19.0964 2.03591 19.7222 2.30215 20.2792L0.293153 22.2932C0.105682 22.4807 0.000366211 22.735 0.000366211 23.0002C0.000366211 23.2654 0.105682 23.5197 0.293153 23.7072C0.48068 23.8947 0.734988 24 1.00015 24C1.26532 24 1.51963 23.8947 1.70715 23.7072L3.71415 21.7002C4.2713 21.9719 4.8996 22.0622 5.51073 21.9584C6.12185 21.8545 6.68506 21.5617 7.12115 21.1212C7.66215 20.5802 10.8802 16.2662 13.3002 13.0002H16.7622C17.2878 13.0016 17.8084 12.8987 18.294 12.6975C18.7796 12.4964 19.2205 12.2009 19.5912 11.8282L22.8332 8.5862C23.5795 7.83405 23.9989 6.81778 24.0002 5.7582V4.0002C24.0002 2.93933 23.5787 1.92192 22.8286 1.17177C22.0784 0.421624 21.061 0.000196997 20.0002 0.000196997V0.000196997ZM5.70715 19.7072C5.51702 19.8897 5.26369 19.9916 5.00015 19.9916C4.73661 19.9916 4.48328 19.8897 4.29315 19.7072C4.10568 19.5197 4.00037 19.2654 4.00037 19.0002C4.00037 18.735 4.10568 18.4807 4.29315 18.2932C4.63215 17.9572 7.29315 15.9502 10.2412 13.7592C8.04915 16.7062 6.04215 19.3692 5.70715 19.7072V19.7072ZM22.0002 5.7582C21.9988 6.28835 21.7882 6.79653 21.4142 7.1722L18.1722 10.4142C17.9867 10.6005 17.7662 10.7482 17.5233 10.8488C17.2804 10.9494 17.02 11.0008 16.7572 11.0002H14.7712L15.7622 9.6522L19.7072 5.7072C19.8027 5.61495 19.8788 5.50461 19.9313 5.3826C19.9837 5.2606 20.0112 5.12938 20.0124 4.9966C20.0136 4.86382 19.9883 4.73214 19.938 4.60924C19.8877 4.48635 19.8134 4.37469 19.7195 4.2808C19.6257 4.18691 19.514 4.11266 19.3911 4.06238C19.2682 4.01209 19.1365 3.98679 19.0038 3.98795C18.871 3.9891 18.7398 4.01669 18.6177 4.0691C18.4957 4.1215 18.3854 4.19769 18.2932 4.2932L14.3492 8.2372L13.0002 9.2292V7.2422C13.0015 6.71205 13.2121 6.20386 13.5862 5.8282L16.8282 2.5862C17.0136 2.3999 17.2342 2.2522 17.477 2.15162C17.7199 2.05104 17.9803 1.99957 18.2432 2.0002H20.0002C20.5306 2.0002 21.0393 2.21091 21.4144 2.58598C21.7894 2.96106 22.0002 3.46976 22.0002 4.0002V5.7582Z" fill="#374957"/>
</g>
<defs>
<clipPath id="clip0_119_13866">
<rect width="24" height="24" fill="white"/>
</clipPath>
</defs>
</svg>
