<svg width="24" height="24" viewBox="0 0 24 24" fill="none" xmlns="http://www.w3.org/2000/svg">
<g clip-path="url(#clip0_119_14226)">
<path d="M14.6961 15.3811L13.8861 16.1901C13.4951 16.5811 13.4951 17.2131 13.8861 17.6041C14.0811 17.7991 14.3371 17.8971 14.5931 17.8971C14.8491 17.8971 15.1051 17.7991 15.3001 17.6041L22.7021 10.2031C23.0931 9.81213 23.0931 9.18013 22.7021 8.78913C22.3111 8.39813 21.6791 8.39813 21.2881 8.78913L20.5661 9.51113L13.4841 2.42913L14.2061 1.70713C14.5971 1.31613 14.5971 0.684128 14.2061 0.293128C13.8151 -0.0978721 13.1831 -0.0978721 12.7921 0.293128L5.39013 7.69513C4.99913 8.08613 4.99913 8.71813 5.39013 9.10913C5.58513 9.30413 5.84113 9.40213 6.09713 9.40213C6.35313 9.40213 6.60913 9.30413 6.80413 9.10913L7.61413 8.29913L10.4501 11.1351L0.293128 21.2931C-0.0978721 21.6841 -0.0978721 22.3161 0.293128 22.7071C0.488128 22.9021 0.744128 23.0001 1.00013 23.0001C1.25613 23.0001 1.51213 22.9021 1.70713 22.7071L11.8651 12.5491L14.6971 15.3801L14.6961 15.3811ZM19.1531 10.9251L16.1101 13.9671L14.8651 12.7221L17.9081 9.67913L19.1531 10.9241V10.9251ZM10.3641 8.22213L9.02813 6.88613L12.0711 3.84313L13.4071 5.17913L10.3641 8.22213ZM14.8211 6.59313L16.4931 8.26513L13.4501 11.3081L11.7781 9.63613L14.8211 6.59313ZM24.0001 23.0001C24.0001 23.5531 23.5531 24.0001 23.0001 24.0001H10.0001C9.44713 24.0001 9.00013 23.5531 9.00013 23.0001C9.00013 22.4471 9.44713 22.0001 10.0001 22.0001H10.0511C10.2831 20.8601 11.2931 20.0001 12.5001 20.0001H20.5001C21.7081 20.0001 22.7171 20.8601 22.9491 22.0001H23.0001C23.5531 22.0001 24.0001 22.4471 24.0001 23.0001Z" fill="#374957"/>
</g>
<defs>
<clipPath id="clip0_119_14226">
<rect width="24" height="24" fill="white"/>
</clipPath>
</defs>
</svg>
