<svg width="24" height="24" viewBox="0 0 24 24" fill="none" xmlns="http://www.w3.org/2000/svg">
<g clip-path="url(#clip0_119_13796)">
<path d="M17.7621 24C9.63115 24.275 -5.01683 9.74498 1.78416 1.86697L2.93416 0.866975C3.51628 0.30424 4.29657 -0.00664765 5.10618 0.00158695C5.91579 0.00982154 6.6896 0.336516 7.26015 0.910975C7.29099 0.942379 7.31972 0.975785 7.34615 1.01097L9.14615 3.34998C9.69317 3.92881 9.99711 4.69555 9.99525 5.49197C9.99339 6.28839 9.68587 7.0537 9.13615 7.62998L7.97815 9.08598C8.61927 10.643 9.56157 12.0582 10.751 13.2502C11.9404 14.4421 13.3535 15.3875 14.9091 16.032L16.3731 14.867C16.9569 14.3308 17.7204 14.0328 18.513 14.0317C19.3056 14.0306 20.0699 14.3265 20.6551 14.861L22.9951 16.661C23.0301 16.6873 23.0635 16.7157 23.0951 16.746C23.6722 17.3284 23.996 18.1151 23.996 18.935C23.996 19.7549 23.6722 20.5416 23.0951 21.124L22.1841 22.174C21.6063 22.7581 20.9173 23.2207 20.1578 23.5343C19.3984 23.8479 18.5838 24.0062 17.7621 24V24ZM5.07115 1.99997C4.92745 1.99986 4.78512 2.02807 4.65232 2.08297C4.51951 2.13788 4.39883 2.21841 4.29716 2.31997L3.14616 3.31998C-2.49984 10.108 14.7771 26.423 20.7201 20.808L21.6321 19.757C21.7405 19.6605 21.8288 19.5435 21.8918 19.4128C21.9548 19.282 21.9913 19.1401 21.9992 18.9952C22.0071 18.8503 21.9862 18.7052 21.9378 18.5684C21.8894 18.4316 21.8144 18.3057 21.7171 18.198L19.3901 16.411C19.3545 16.3848 19.321 16.3557 19.2901 16.324C19.0815 16.1252 18.8043 16.0143 18.5161 16.0143C18.2279 16.0143 17.9508 16.1252 17.7421 16.324C17.7156 16.3509 17.6875 16.3762 17.6581 16.4L15.7001 17.96C15.5642 18.0682 15.4025 18.1391 15.2308 18.1657C15.0591 18.1924 14.8835 18.1739 14.7211 18.112C12.7053 17.361 10.8744 16.1855 9.35245 14.6652C7.83054 13.1448 6.65319 11.3151 5.90015 9.29998C5.83349 9.13535 5.81187 8.95593 5.83753 8.78018C5.86319 8.60442 5.9352 8.43868 6.04615 8.29998L7.60015 6.34398C7.62326 6.31435 7.64832 6.28629 7.67515 6.25998C7.87942 6.05396 7.99403 5.77559 7.99403 5.48548C7.99403 5.19536 7.87942 4.91699 7.67515 4.71098C7.64398 4.67988 7.61523 4.64645 7.58915 4.61098L5.80615 2.28697C5.60469 2.10494 5.34268 2.00442 5.07115 2.00498V1.99997ZM22.5641 12.576C27.5541 5.23098 18.7641 -3.55003 11.4271 1.43897C11.3165 1.51285 11.2217 1.60805 11.1483 1.71902C11.0749 1.82999 11.0244 1.95448 10.9998 2.08521C10.9751 2.21594 10.9768 2.35028 11.0047 2.48036C11.0326 2.61044 11.0861 2.73365 11.1622 2.84276C11.2384 2.95188 11.3355 3.04471 11.4479 3.11582C11.5604 3.18692 11.6859 3.23488 11.8171 3.25688C11.9483 3.27888 12.0826 3.27447 12.212 3.24392C12.3415 3.21338 12.4636 3.1573 12.5711 3.07898C18.0451 -0.680025 24.6811 5.96298 20.9241 11.433C20.8441 11.5404 20.7865 11.6629 20.7547 11.793C20.7229 11.9231 20.7176 12.0583 20.7391 12.1906C20.7606 12.3228 20.8084 12.4494 20.8797 12.5628C20.9511 12.6762 21.0445 12.7741 21.1544 12.8507C21.2643 12.9273 21.3885 12.981 21.5195 13.0087C21.6506 13.0364 21.7859 13.0374 21.9174 13.0118C22.0489 12.9862 22.1739 12.9344 22.285 12.8595C22.3961 12.7847 22.491 12.6882 22.5641 12.576V12.576ZM18.7061 10.711C18.8936 10.5234 18.9989 10.2691 18.9989 10.004C18.9989 9.73881 18.8936 9.4845 18.7061 9.29698L17.0001 7.58998V4.99998C17.0001 4.73476 16.8948 4.48041 16.7072 4.29287C16.5197 4.10533 16.2654 3.99998 16.0001 3.99998C15.7349 3.99998 15.4806 4.10533 15.293 4.29287C15.1055 4.48041 15.0001 4.73476 15.0001 4.99998V7.99998C15.0002 8.26517 15.1056 8.51948 15.2931 8.70698L17.2931 10.707C17.4807 10.8944 17.735 10.9998 18.0001 10.9998C18.2653 10.9998 18.5196 10.8944 18.7071 10.707L18.7061 10.711Z" fill="#374957"/>
</g>
<defs>
<clipPath id="clip0_119_13796">
<rect width="24" height="24" fill="white"/>
</clipPath>
</defs>
</svg>
