<svg width="24" height="24" viewBox="0 0 24 24" fill="none" xmlns="http://www.w3.org/2000/svg">
<g clip-path="url(#clip0_119_13977)">
<path d="M20.4572 4.5551L12.4862 0.126102C12.3375 0.0434421 12.1702 6.10352e-05 12.0002 6.10352e-05C11.8301 6.10352e-05 11.6628 0.0434421 11.5142 0.126102L3.54315 4.5551C3.07556 4.81489 2.68593 5.19499 2.41463 5.656C2.14333 6.11701 2.00023 6.64218 2.00015 7.1771V19.0001C2.00174 20.3257 2.52903 21.5965 3.46637 22.5339C4.40371 23.4712 5.67456 23.9985 7.00015 24.0001H17.0002C18.3257 23.9985 19.5966 23.4712 20.5339 22.5339C21.4713 21.5965 21.9986 20.3257 22.0002 19.0001V7.1771C22.0001 6.64218 21.857 6.11701 21.5857 5.656C21.3144 5.19499 20.9247 4.81489 20.4572 4.5551V4.5551ZM20.0002 19.0001C20.0002 19.7958 19.6841 20.5588 19.1215 21.1214C18.5589 21.684 17.7958 22.0001 17.0002 22.0001H7.00015C6.2045 22.0001 5.44144 21.684 4.87883 21.1214C4.31622 20.5588 4.00015 19.7958 4.00015 19.0001V7.1771C3.99971 6.99822 4.04726 6.82249 4.13784 6.66824C4.22842 6.51399 4.35872 6.38686 4.51515 6.3001L12.0002 2.1441L19.4862 6.3001C19.6424 6.38699 19.7725 6.51418 19.8629 6.66842C19.9533 6.82266 20.0007 6.99832 20.0002 7.1771V19.0001Z" fill="#374957"/>
<path d="M12 8.50031C12.8284 8.50031 13.5 7.82873 13.5 7.00031C13.5 6.17188 12.8284 5.50031 12 5.50031C11.1716 5.50031 10.5 6.17188 10.5 7.00031C10.5 7.82873 11.1716 8.50031 12 8.50031Z" fill="#374957"/>
</g>
<defs>
<clipPath id="clip0_119_13977">
<rect width="24" height="24" fill="white"/>
</clipPath>
</defs>
</svg>
