<svg width="24" height="24" viewBox="0 0 24 24" fill="none" xmlns="http://www.w3.org/2000/svg">
<g clip-path="url(#clip0_119_13808)">
<path d="M24.0001 11.983C23.998 11.169 23.7472 10.375 23.2812 9.70748C22.8153 9.03995 22.1565 8.53073 21.3931 8.24803L21.3551 8.15703C20.3631 5.73047 18.4639 3.78641 16.0611 2.73803L15.7321 2.59403C15.4489 1.83295 14.9396 1.17669 14.2727 0.7133C13.6059 0.249911 12.8132 0.0015564 12.0011 0.0015564C11.189 0.0015564 10.3964 0.249911 9.72948 0.7133C9.06259 1.17669 8.55336 1.83295 8.27012 2.59403L7.85212 2.78203C5.47066 3.86368 3.59632 5.81966 2.61712 8.24503C1.85246 8.52363 1.19159 9.02993 0.723567 9.69572C0.255546 10.3615 0.00287411 11.1548 -0.000395117 11.9686C-0.00366434 12.7824 0.242626 13.5777 0.705283 14.2472C1.16794 14.9167 1.82472 15.4283 2.58712 15.713L2.71512 16.013C3.71847 18.3419 5.56116 20.2082 7.87712 21.241L8.27012 21.417C8.55416 22.177 9.06358 22.8321 9.73019 23.2946C10.3968 23.7571 11.1888 24.005 12.0001 24.005C12.8115 24.005 13.6034 23.7571 14.27 23.2946C14.9367 22.8321 15.4461 22.177 15.7301 21.417L16.0971 21.254C18.5197 20.1708 20.4243 18.1855 21.4061 15.72C22.1669 15.4344 22.8227 14.9238 23.2861 14.2562C23.7495 13.5886 23.9985 12.7957 24.0001 11.983ZM12.0001 2.00003C12.3957 2.00003 12.7824 2.11733 13.1113 2.33709C13.4402 2.55686 13.6965 2.86921 13.8479 3.23467C13.9992 3.60012 14.0389 4.00225 13.9617 4.39021C13.8845 4.77818 13.694 5.13454 13.4143 5.41425C13.1346 5.69395 12.7783 5.88443 12.3903 5.9616C12.0023 6.03877 11.6002 5.99917 11.2347 5.84779C10.8693 5.69642 10.5569 5.44007 10.3372 5.11117C10.1174 4.78227 10.0001 4.3956 10.0001 4.00003C10.0001 3.4696 10.2108 2.96089 10.5859 2.58582C10.961 2.21075 11.4697 2.00003 12.0001 2.00003ZM3.98812 9.98503L4.07012 10.016L4.08012 9.99103C4.58121 10.0359 5.04445 10.2764 5.3694 10.6605C5.69435 11.0446 5.85482 11.5412 5.81603 12.0429C5.77724 12.5445 5.54231 13.0106 5.16217 13.3401C4.78203 13.6697 4.28732 13.8361 3.78529 13.8034C3.28325 13.7706 2.81435 13.5413 2.48024 13.1652C2.14613 12.7891 1.97373 12.2964 2.00041 11.794C2.0271 11.2916 2.25072 10.82 2.6228 10.4814C2.99488 10.1427 3.48544 9.96441 3.98812 9.98503V9.98503ZM12.0001 22C11.6046 22 11.2179 21.8827 10.889 21.663C10.5601 21.4432 10.3037 21.1309 10.1524 20.7654C10.001 20.4 9.96137 19.9978 10.0385 19.6099C10.1157 19.2219 10.3062 18.8655 10.5859 18.5858C10.8656 18.3061 11.222 18.1156 11.6099 18.0385C11.9979 17.9613 12.4 18.0009 12.7655 18.1523C13.1309 18.3037 13.4433 18.56 13.6631 18.8889C13.8828 19.2178 14.0001 19.6045 14.0001 20C14.0001 20.5305 13.7894 21.0392 13.4143 21.4142C13.0393 21.7893 12.5305 22 12.0001 22ZM15.8931 19.114C15.6941 18.2301 15.2001 17.4401 14.4925 16.8741C13.7849 16.3082 12.9057 15.9998 11.9996 15.9998C11.0935 15.9998 10.2144 16.3082 9.50674 16.8741C8.79913 17.4401 8.30518 18.2301 8.10612 19.114C6.74071 18.3689 5.61895 17.2461 4.87512 15.88C5.75633 15.6809 6.54391 15.1887 7.10909 14.4839C7.67427 13.7791 7.98361 12.9034 7.98651 12C7.98941 11.0966 7.68572 10.2189 7.12508 9.51047C6.56444 8.80205 5.78003 8.3048 4.90012 8.10003C5.64669 6.75317 6.75786 5.64408 8.10612 4.90003C8.30601 5.78303 8.80019 6.57182 9.50751 7.13692C10.2148 7.70201 11.0933 8.00983 11.9986 8.00983C12.904 8.00983 13.7824 7.70201 14.4897 7.13692C15.197 6.57182 15.6912 5.78303 15.8911 4.90003C17.2384 5.64326 18.3502 6.74949 19.1001 8.09303C18.2175 8.29463 17.4297 8.79032 16.8659 9.49873C16.3022 10.2071 15.9961 11.0862 15.9978 11.9915C15.9995 12.8969 16.3091 13.7747 16.8755 14.481C17.442 15.1872 18.2317 15.6798 19.1151 15.878C18.3689 17.2398 17.2516 18.3619 15.8931 19.114ZM20.0001 13.983C19.6046 13.983 19.2179 13.8657 18.889 13.646C18.5601 13.4262 18.3037 13.1139 18.1524 12.7484C18.001 12.3829 17.9614 11.9808 18.0385 11.5929C18.1157 11.2049 18.3062 10.8485 18.5859 10.5688C18.8656 10.2891 19.222 10.0986 19.6099 10.0215C19.9979 9.94429 20.4 9.9839 20.7655 10.1353C21.1309 10.2866 21.4433 10.543 21.6631 10.8719C21.8828 11.2008 22.0001 11.5875 22.0001 11.983C22.0001 12.5135 21.7894 13.0222 21.4143 13.3972C21.0393 13.7723 20.5305 13.983 20.0001 13.983Z" fill="#374957"/>
</g>
<defs>
<clipPath id="clip0_119_13808">
<rect width="24" height="24" fill="white"/>
</clipPath>
</defs>
</svg>
