<svg width="24" height="24" viewBox="0 0 24 24" fill="none" xmlns="http://www.w3.org/2000/svg">
<g clip-path="url(#clip0_119_14213)">
<path d="M23 20.9993H21.721L20.4 17.0503C20.2011 16.4539 19.8198 15.935 19.31 15.5669C18.8002 15.1989 18.1877 15.0004 17.559 14.9993H14C13.4695 14.9993 12.9608 14.7886 12.5858 14.4135C12.2107 14.0385 12 13.5298 12 12.9993H18C18.2652 12.9993 18.5195 12.894 18.7071 12.7064C18.8946 12.5189 19 12.2645 19 11.9993C19 11.7341 18.8946 11.4798 18.7071 11.2922C18.5195 11.1047 18.2652 10.9993 18 10.9993H12V7.99933C11.994 7.95411 11.9849 7.90935 11.973 7.86533C12.9196 7.62792 13.7468 7.0526 14.2988 6.24771C14.8508 5.44282 15.0894 4.4639 14.9698 3.49528C14.8502 2.52666 14.3806 1.63519 13.6494 0.988744C12.9182 0.342295 11.9759 -0.0145264 11 -0.0145264C10.024 -0.0145264 9.08169 0.342295 8.35051 0.988744C7.61933 1.63519 7.14972 2.52666 7.03011 3.49528C6.91051 4.4639 7.14916 5.44282 7.70114 6.24771C8.25311 7.0526 9.08031 7.62792 10.027 7.86533C10.015 7.90935 10.006 7.95411 9.99996 7.99933V12.9993C10.0021 14.0434 10.4123 15.0453 11.143 15.791C11.8738 16.5367 12.8672 16.9671 13.911 16.9903C13.7282 18.0832 13.2463 19.1042 12.5188 19.94C11.7913 20.7758 10.8465 21.3938 9.78922 21.7255C8.73195 22.0572 7.60346 22.0897 6.52888 21.8192C5.45429 21.5488 4.47558 20.9861 3.70125 20.1934C2.92691 19.4008 2.3872 18.4092 2.14195 17.3286C1.8967 16.248 1.95549 15.1206 2.3118 14.0713C2.6681 13.0221 3.30801 12.092 4.16058 11.3842C5.01315 10.6764 6.04508 10.2185 7.14196 10.0613C7.40466 10.0237 7.64164 9.88319 7.80076 9.67081C7.95989 9.45842 8.02813 9.19153 7.99046 8.92883C7.9528 8.66613 7.81233 8.42915 7.59994 8.27003C7.38756 8.11091 7.12066 8.04267 6.85796 8.08033C5.38193 8.29202 3.99444 8.91204 2.85206 9.8704C1.70968 10.8288 0.857889 12.0873 0.3928 13.5041C-0.0722886 14.9208 -0.13216 16.4394 0.219942 17.8883C0.572045 19.3373 1.32211 20.659 2.38548 21.7044C3.44886 22.7497 4.78323 23.477 6.23802 23.8043C7.6928 24.1315 9.21009 24.0457 10.6187 23.5564C12.0273 23.0671 13.2711 22.1939 14.2097 21.0353C15.1484 19.8767 15.7446 18.4788 15.931 16.9993H17.559C17.7689 16.9993 17.9736 17.0653 18.1439 17.1881C18.3142 17.3109 18.4416 17.4841 18.508 17.6833L20.052 22.3153C20.1183 22.5144 20.2455 22.6875 20.4156 22.8103C20.5857 22.933 20.7902 22.9992 21 22.9993H23C23.2652 22.9993 23.5195 22.894 23.7071 22.7064C23.8946 22.5189 24 22.2645 24 21.9993C24 21.7341 23.8946 21.4798 23.7071 21.2922C23.5195 21.1047 23.2652 20.9993 23 20.9993ZM8.99996 3.99933C8.99996 3.60377 9.11726 3.21709 9.33703 2.88819C9.55679 2.55929 9.86915 2.30294 10.2346 2.15157C10.6001 2.00019 11.0022 1.96059 11.3901 2.03776C11.7781 2.11493 12.1345 2.30541 12.4142 2.58511C12.6939 2.86482 12.8844 3.22119 12.9615 3.60915C13.0387 3.99711 12.9991 4.39924 12.8477 4.7647C12.6963 5.13015 12.44 5.4425 12.1111 5.66227C11.7822 5.88203 11.3955 5.99933 11 5.99933C10.4695 5.99933 9.96082 5.78861 9.58575 5.41354C9.21068 5.03847 8.99996 4.52976 8.99996 3.99933Z" fill="#374957"/>
</g>
<defs>
<clipPath id="clip0_119_14213">
<rect width="24" height="24" fill="white"/>
</clipPath>
</defs>
</svg>
