<svg width="24" height="24" viewBox="0 0 24 24" fill="none" xmlns="http://www.w3.org/2000/svg">
<g clip-path="url(#clip0_119_13765)">
<path d="M24 23C24 23.2652 23.8947 23.5196 23.7071 23.7071C23.5196 23.8947 23.2652 24 23 24H1.00002C0.734808 24 0.480454 23.8947 0.292918 23.7071C0.105381 23.5196 2.46239e-05 23.2652 2.46239e-05 23C2.46239e-05 22.7348 0.105381 22.4805 0.292918 22.2929C0.480454 22.1054 0.734808 22 1.00002 22H23C23.2652 22 23.5196 22.1054 23.7071 22.2929C23.8947 22.4805 24 22.7348 24 23ZM0.291025 8.55203C0.0755469 8.15235 -0.0242807 7.70053 0.00274505 7.24728C0.0297708 6.79402 0.18258 6.35726 0.444025 5.98603C0.871283 5.35914 1.44347 4.84459 2.11202 4.48603L9.61303 0.582025C10.3503 0.198656 11.169 -0.00149536 12 -0.00149536C12.831 -0.00149536 13.6498 0.198656 14.387 0.582025L21.887 4.48903C22.5556 4.84759 23.1278 5.36214 23.555 5.98903C23.8165 6.36026 23.9693 6.79702 23.9963 7.25028C24.0233 7.70353 23.9235 8.15535 23.708 8.55503C23.476 8.99385 23.1281 9.36063 22.7021 9.61541C22.2761 9.8702 21.7884 10.0032 21.292 10H21V18H22C22.2652 18 22.5196 18.1054 22.7071 18.2929C22.8947 18.4805 23 18.7348 23 19C23 19.2652 22.8947 19.5196 22.7071 19.7071C22.5196 19.8947 22.2652 20 22 20H2.00002C1.73481 20 1.48045 19.8947 1.29292 19.7071C1.10538 19.5196 1.00002 19.2652 1.00002 19C1.00002 18.7348 1.10538 18.4805 1.29292 18.2929C1.48045 18.1054 1.73481 18 2.00002 18H3.00002V10H2.70802C2.21118 10.0031 1.72303 9.86973 1.29681 9.61439C0.870596 9.35905 0.522683 8.99157 0.291025 8.55203V8.55203ZM5.00003 18H8.00003V10H5.00003V18ZM10 10V18H14V10H10ZM19 10H16V18H19V10ZM2.06302 7.62503C2.12577 7.7407 2.21914 7.83688 2.33291 7.90303C2.44668 7.96917 2.57645 8.00273 2.70802 8.00003H21.292C21.4236 8.00273 21.5534 7.96917 21.6671 7.90303C21.7809 7.83688 21.8743 7.7407 21.937 7.62503C21.9827 7.54859 22.0048 7.46035 22.0006 7.3714C21.9963 7.28244 21.9658 7.19673 21.913 7.12503C21.6707 6.76494 21.3452 6.46857 20.964 6.26103L13.464 2.35402C13.012 2.11945 12.5103 1.997 12.001 1.997C11.4918 1.997 10.99 2.11945 10.538 2.35402L3.03803 6.26103C2.65701 6.46923 2.33155 6.76588 2.08902 7.12603C2.03611 7.19743 2.00543 7.28285 2.0008 7.37161C1.99618 7.46036 2.01782 7.54851 2.06302 7.62503V7.62503Z" fill="#374957"/>
</g>
<defs>
<clipPath id="clip0_119_13765">
<rect width="24" height="24" fill="white"/>
</clipPath>
</defs>
</svg>
