<svg width="24" height="24" viewBox="0 0 24 24" fill="none" xmlns="http://www.w3.org/2000/svg">
<g clip-path="url(#clip0_119_14225)">
<path d="M22 9V11H19V0H17V2H15V0H13V2H11V0H9V2H7V0H5V11H2V9H0V21C0 22.654 1.346 24 3 24H10V19C10 17.897 10.897 17 12 17C13.103 17 14 17.897 14 19V24H21C22.654 24 24 22.654 24 21V9H22ZM7 4H17V11H14V8C14 6.895 13.105 6 12 6C10.895 6 10 6.895 10 8V11H7V4ZM21 22H16V19C16 16.794 14.206 15 12 15C9.794 15 8 16.794 8 19V22H3C2.449 22 2 21.552 2 21V13H22V21C22 21.552 21.551 22 21 22Z" fill="#374957"/>
</g>
<defs>
<clipPath id="clip0_119_14225">
<rect width="24" height="24" fill="white"/>
</clipPath>
</defs>
</svg>
