<svg width="24" height="24" viewBox="0 0 24 24" fill="none" xmlns="http://www.w3.org/2000/svg">
<g clip-path="url(#clip0_119_13936)">
<path d="M23.9549 21.3188C23.9159 21.1934 23.8526 21.0769 23.7686 20.9759C23.6845 20.875 23.5814 20.7916 23.4652 20.7305C23.3489 20.6694 23.2218 20.6318 23.091 20.6198C22.9602 20.6079 22.8283 20.6218 22.7029 20.6608L21.4029 21.0608L20.4719 18.3238C21.4498 17.7751 22.2125 16.9108 22.6354 15.8723C23.0583 14.8338 23.1163 13.6826 22.7999 12.6068L20.9569 7.13183C20.7249 6.38438 20.2121 5.75602 19.5264 5.37891C18.8406 5.00181 18.0353 4.90535 17.2799 5.10983L13.4279 6.18383C12.8755 6.33753 12.3795 6.64806 11.9999 7.07783C11.6203 6.64806 11.1243 6.33753 10.5719 6.18383L6.71888 5.10983C5.96895 4.90296 5.16804 4.99469 4.4843 5.36574C3.80055 5.73679 3.28715 6.35832 3.05188 7.09983L1.18488 12.6568C0.880902 13.7317 0.948984 14.8778 1.37809 15.9092C1.80719 16.9406 2.57215 17.7967 3.54888 18.3388L2.60488 21.0668L1.29988 20.6608C1.17447 20.6214 1.04253 20.6071 0.911584 20.6187C0.780642 20.6303 0.653266 20.6676 0.536728 20.7284C0.42019 20.7892 0.316774 20.8724 0.232383 20.9732C0.147992 21.074 0.0842795 21.1904 0.0448829 21.3158C0.00548634 21.4412 -0.00882265 21.5732 0.00277292 21.7041C0.0143685 21.8351 0.0516415 21.9624 0.112464 22.079C0.173286 22.1955 0.256467 22.2989 0.357256 22.3833C0.458046 22.4677 0.574471 22.5314 0.699883 22.5708L2.85988 23.2418C2.87488 23.2418 2.88388 23.2588 2.89888 23.2648C2.91388 23.2708 2.95088 23.2708 2.97688 23.2778L5.15788 23.9548C5.41117 24.0336 5.68536 24.0085 5.92016 23.8851C6.15496 23.7617 6.33111 23.5501 6.40988 23.2968C6.48865 23.0435 6.46358 22.7693 6.34018 22.5345C6.21678 22.2998 6.00517 22.1236 5.75188 22.0448L4.51588 21.6598L5.45088 18.9598C5.63632 18.9836 5.82295 18.997 6.00988 18.9998C7.09105 18.9972 8.14222 18.6441 9.00582 17.9936C9.86941 17.3431 10.4989 16.4303 10.7999 15.3918L11.9999 11.8358L13.1829 15.3358C13.4745 16.3875 14.1021 17.3148 14.9701 17.9764C15.838 18.638 16.8986 18.9974 17.9899 18.9998C18.1842 18.998 18.3782 18.9846 18.5709 18.9598L19.4889 21.6598L18.2449 22.0458C17.9916 22.1246 17.78 22.3008 17.6566 22.5356C17.5332 22.7703 17.5081 23.0445 17.5869 23.2978C17.6657 23.5511 17.8418 23.7627 18.0766 23.8861C18.3114 24.0095 18.5856 24.0346 18.8389 23.9558L21.0139 23.2808C21.0399 23.2738 21.0669 23.2808 21.0929 23.2678C21.1189 23.2548 21.1189 23.2488 21.1349 23.2428L23.2969 22.5718C23.4224 22.5328 23.539 22.4695 23.6401 22.3854C23.7411 22.3013 23.8246 22.1981 23.8857 22.0817C23.9468 21.9654 23.9843 21.8381 23.9962 21.7072C24.0081 21.5763 23.9941 21.4443 23.9549 21.3188V21.3188ZM13.3569 8.59183C13.4205 8.47465 13.5072 8.37155 13.6116 8.28871C13.7161 8.20588 13.8363 8.14503 13.9649 8.10983L17.8159 7.03683C17.9018 7.01277 17.9906 7.00032 18.0799 6.99983C18.2998 7.00215 18.5131 7.07529 18.6882 7.20841C18.8633 7.34152 18.9908 7.52752 19.0519 7.73883L19.8129 9.99983H13.4899L13.2749 9.36283C13.2365 9.23533 13.224 9.10145 13.2381 8.96906C13.2522 8.83666 13.2926 8.70841 13.3569 8.59183V8.59183ZM5.91788 6.99983C6.00742 6.99999 6.09654 7.0121 6.18288 7.03583L10.0349 8.10983C10.2894 8.18001 10.5058 8.34798 10.6369 8.57708C10.768 8.80619 10.8033 9.07785 10.7349 9.33283L10.5099 9.99983H4.18688L4.95688 7.70983C5.02043 7.50448 5.14796 7.32482 5.32085 7.19709C5.49374 7.06936 5.70293 7.00024 5.91788 6.99983V6.99983ZM8.89188 14.7998C8.73216 15.3706 8.40692 15.8813 7.95721 16.2675C7.50751 16.6536 6.9535 16.8979 6.3651 16.9694C5.7767 17.041 5.18029 16.9367 4.65113 16.6696C4.12197 16.4025 3.68379 15.9847 3.39188 15.4688C3.0054 14.7949 2.90047 13.9957 3.09988 13.2448L3.51388 11.9998H9.83588L8.89188 14.7998ZM16.5239 16.6078C16.1735 16.409 15.8664 16.1421 15.6206 15.8229C15.3749 15.5036 15.1954 15.1384 15.0929 14.7488L14.1639 11.9998H20.4869L20.8869 13.1938C21.0465 13.7657 21.0328 14.372 20.8476 14.936C20.6625 15.5001 20.3141 15.9965 19.8466 16.3625C19.3791 16.7285 18.8136 16.9475 18.2216 16.9919C17.6296 17.0363 17.0377 16.904 16.5209 16.6118L16.5239 16.6078Z" fill="#374957"/>
<path d="M15.553 3.89987C15.6711 3.95923 15.7998 3.9946 15.9316 4.00394C16.0634 4.01328 16.1958 3.9964 16.321 3.95428C16.4463 3.91215 16.5619 3.84562 16.6613 3.75853C16.7607 3.67144 16.8419 3.56551 16.9001 3.44687L17.9001 1.44687C18.0186 1.2095 18.038 0.934758 17.954 0.683085C17.87 0.431411 17.6894 0.22342 17.4521 0.104868C17.2147 -0.0136833 16.9399 -0.0330851 16.6883 0.0509312C16.4366 0.134947 16.2286 0.3155 16.1101 0.552868L15.11 2.55287C15.0503 2.67033 15.0144 2.79844 15.0044 2.92982C14.9943 3.06121 15.0104 3.19329 15.0515 3.31846C15.0927 3.44364 15.1582 3.55944 15.2443 3.65922C15.3303 3.759 15.4353 3.84078 15.553 3.89987V3.89987Z" fill="#374957"/>
<path d="M7.10509 3.44687C7.22364 3.6849 7.43189 3.86609 7.68404 3.95057C7.80888 3.99241 7.94075 4.00924 8.0721 4.00011C8.20346 3.99098 8.33173 3.95607 8.44959 3.89737C8.56745 3.83867 8.67259 3.75733 8.75902 3.65799C8.84544 3.55865 8.91146 3.44327 8.95329 3.31842C8.99512 3.19357 9.01196 3.06171 9.00283 2.93035C8.9937 2.799 8.95879 2.67073 8.90009 2.55287L7.90009 0.552868C7.84139 0.435335 7.76011 0.330515 7.6609 0.244393C7.56169 0.15827 7.44649 0.0925318 7.32187 0.0509312C7.0702 -0.0330851 6.79546 -0.0136833 6.55809 0.104868C6.32072 0.22342 6.14017 0.431411 6.05615 0.683085C5.97213 0.934758 5.99154 1.2095 6.11009 1.44687L7.10509 3.44687Z" fill="#374957"/>
<path d="M12.0002 4C12.2654 4 12.5197 3.89464 12.7073 3.70711C12.8948 3.51957 13.0002 3.26522 13.0002 3V1C13.0002 0.734784 12.8948 0.48043 12.7073 0.292893C12.5197 0.105357 12.2654 0 12.0002 0C11.7349 0 11.4806 0.105357 11.293 0.292893C11.1055 0.48043 11.0002 0.734784 11.0002 1V3C11.0002 3.26522 11.1055 3.51957 11.293 3.70711C11.4806 3.89464 11.7349 4 12.0002 4Z" fill="#374957"/>
</g>
<defs>
<clipPath id="clip0_119_13936">
<rect width="24" height="24" fill="white"/>
</clipPath>
</defs>
</svg>
