<svg width="24" height="24" viewBox="0 0 24 24" fill="none" xmlns="http://www.w3.org/2000/svg">
<path d="M12.5 5C13.8807 5 15 3.88071 15 2.5C15 1.11929 13.8807 0 12.5 0C11.1193 0 10 1.11929 10 2.5C10 3.88071 11.1193 5 12.5 5Z" fill="#374957"/>
<path d="M20.447 12.402L17.604 10.98C17.277 10.817 17.001 10.567 16.807 10.257L15.327 7.90602C15.273 7.82802 14.006 5.99902 12 5.99902H11.121C9.90699 5.99902 8.68999 6.28602 7.60299 6.82902L5.50699 7.87802C4.73699 8.26202 4.16899 8.96002 3.94799 9.79202L3.16499 12.743C3.02299 13.277 3.34199 13.825 3.87499 13.966C4.40899 14.105 4.95699 13.789 5.09799 13.256L5.88099 10.305C5.95399 10.028 6.14299 9.79502 6.39999 9.66702L8.49699 8.61802C8.69399 8.51902 8.89699 8.43302 9.10399 8.35802L8.07799 12.743C7.77699 14.029 8.36899 15.383 9.51699 16.035L13.494 18.293C13.806 18.471 14 18.804 14 19.163V22.999C14 23.551 14.447 23.999 15 23.999C15.553 23.999 16 23.551 16 22.999V19.163C16 18.086 15.419 17.087 14.482 16.554L12.532 15.446L14.07 9.66202L15.114 11.321C15.504 11.941 16.056 12.442 16.711 12.768L19.553 14.189C19.697 14.261 19.849 14.294 19.999 14.294C20.366 14.294 20.719 14.092 20.895 13.741C21.142 13.247 20.942 12.646 20.448 12.399L20.447 12.402Z" fill="#374957"/>
<path d="M9.19 17.865C9.182 17.86 9.174 17.855 9.166 17.851C8.598 17.511 7.862 17.822 7.712 18.467L7.559 19.128L5.949 22.58C5.641 23.241 6.123 23.999 6.853 23.999C7.239 23.999 7.591 23.776 7.756 23.426L9.41 19.912L9.638 18.919C9.733 18.507 9.552 18.081 9.189 17.864L9.19 17.865Z" fill="#374957"/>
</svg>
