<svg width="24" height="24" viewBox="0 0 24 24" fill="none" xmlns="http://www.w3.org/2000/svg">
<path d="M8.33698 13.3223L10.6234 11.0359L8.33698 8.74956C7.94088 8.36701 7.92987 7.73575 8.31246 7.33965C8.69501 6.94356 9.32627 6.93255 9.72237 7.31514C9.73067 7.32315 9.73887 7.33136 9.74688 7.33965L12.0333 9.62603L14.3196 7.33965C14.7022 6.94356 15.3334 6.93259 15.7295 7.31519C16.1256 7.69778 16.1366 8.329 15.754 8.72509C15.746 8.73339 15.7378 8.74154 15.7295 8.74956L13.4432 11.0359L15.7295 13.3223C16.1256 13.7049 16.1366 14.3361 15.754 14.7322C15.3714 15.1283 14.7402 15.1393 14.3441 14.7567C14.3358 14.7487 14.3277 14.7405 14.3196 14.7322L12.0333 12.4458L9.74688 14.7322C9.35079 15.1148 8.71957 15.1038 8.33698 14.7077C7.96376 14.3214 7.96376 13.7087 8.33698 13.3223ZM4.30568 18.8184C-0.0289906 14.587 -0.112803 7.64289 4.11856 3.30817C8.34992 -1.02655 15.2941 -1.11031 19.6287 3.12105C19.6826 3.17364 19.7359 3.2268 19.7887 3.28047C24.0718 7.56376 24.0718 14.5082 19.7887 18.7914L15.8083 22.4698C13.6962 24.5154 10.3392 24.507 8.23728 22.4508L4.30568 18.8184ZM3.05932 11.036C3.05281 13.4173 3.99926 15.7023 5.6877 17.3815L9.61132 21.007C10.9584 22.2943 13.0772 22.3027 14.4343 21.0259L18.4068 17.3546C21.9039 13.8423 21.8917 8.16006 18.3794 4.66295C14.8671 1.16584 9.18485 1.17808 5.68774 4.69037C3.99921 6.36962 3.05281 8.65464 3.05932 11.036Z" fill="#374957"/>
</svg>
