<svg width="24" height="24" viewBox="0 0 24 24" fill="none" xmlns="http://www.w3.org/2000/svg">
<g clip-path="url(#clip0_119_14224)">
<path d="M21.4313 1.43798C19.7724 0.856009 18.1314 0.450027 16.5544 0.228036C14.9775 0.0060459 13.2875 -0.0529515 11.5275 0.0470441C9.70454 0.153039 8.19456 1.52198 7.93457 3.3019L7.64957 5.26082C7.58058 5.26982 7.51258 5.27882 7.44358 5.28782C5.8666 5.50981 4.22563 5.91579 2.56666 6.49776C0.842688 7.10374 -0.220294 8.83766 0.0387012 10.6226L1.03868 17.4903C1.51668 20.7791 5.8946 22.8441 8.46156 23.783C8.85855 23.929 9.26955 24 9.67754 24C10.3985 24 11.1065 23.777 11.6985 23.344C13.2115 22.2401 15.2434 20.5112 16.3354 18.5332C16.3614 18.4862 16.3834 18.4372 16.4014 18.3882C18.9824 17.3353 22.5333 15.3724 22.9613 12.4285L23.9613 5.5608C24.2203 3.77588 23.1573 2.04196 21.4323 1.43598L21.4313 1.43798ZM10.5195 21.7291C10.1325 22.0121 9.61954 22.0771 9.14755 21.9061C5.54561 20.5891 3.25365 18.8312 3.01765 17.2033L2.01767 10.3356C1.89467 9.49563 2.40466 8.67567 3.22765 8.38668C4.63262 7.8947 6.0166 7.53872 7.34858 7.32573L6.93459 10.1706C6.90359 10.3846 6.88959 10.5976 6.89159 10.8106C6.57359 10.5926 6.2206 10.4886 5.8626 10.5406C5.14062 10.6446 4.61962 11.3416 4.42363 12.2565C4.35863 12.5605 4.61762 12.8355 4.92462 12.7915L7.20658 12.4655C7.46158 13.1705 7.85657 13.8524 8.32856 14.4964C6.96459 14.9474 5.9906 16.1143 5.58961 17.5333C5.45961 17.9943 5.9836 18.3622 6.3816 18.0963C7.71357 17.2053 8.92955 16.7463 10.3045 16.6603C10.9905 17.2903 11.6815 17.8343 12.2705 18.2653C12.6925 18.5742 13.1705 18.7792 13.6685 18.8752C12.6525 20.0882 11.3385 21.1321 10.5185 21.7311L10.5195 21.7291ZM21.9803 5.27382L20.9804 12.1415C20.7444 13.7694 18.4524 15.5274 14.8515 16.8433C14.3795 17.0153 13.8575 16.9433 13.4535 16.6483C10.3755 14.3964 8.67956 12.0825 8.91555 10.4576L9.91454 3.58989C10.0375 2.74493 10.7645 2.09495 11.6435 2.04396C12.1585 2.01396 12.6655 1.99896 13.1655 1.99896C14.2455 1.99896 15.2874 2.06896 16.2764 2.20695C17.7234 2.40994 19.2344 2.78592 20.7704 3.3239C21.5943 3.61389 22.1033 4.43285 21.9813 5.27282L21.9803 5.27382ZM18.5324 11.3206C17.5794 12.5985 16.1054 13.3625 14.5325 13.1395C12.9605 12.9165 11.7615 11.7715 11.2045 10.2806C11.0315 9.81762 11.5445 9.39864 11.9755 9.64063C13.9985 10.7756 15.7134 11.0206 17.9744 10.4946C18.4534 10.3836 18.8264 10.9256 18.5324 11.3206ZM19.4084 7.31073C19.4734 7.61471 19.2144 7.8897 18.9074 7.8457L16.4394 7.49272C16.1324 7.44872 15.9604 7.11274 16.1084 6.83875C16.5524 6.01478 17.2474 5.48981 17.9704 5.5948C18.6924 5.6988 19.2124 6.39577 19.4084 7.31073ZM11.4405 6.17278C11.8845 5.34881 12.5795 4.82384 13.3025 4.92883C14.0245 5.03283 14.5455 5.7298 14.7415 6.64476C14.8065 6.94874 14.5475 7.22373 14.2405 7.17973L11.7725 6.82675C11.4655 6.78275 11.2935 6.44677 11.4415 6.17278H11.4405Z" fill="#374957"/>
</g>
<defs>
<clipPath id="clip0_119_14224">
<rect width="24" height="24" fill="white"/>
</clipPath>
</defs>
</svg>
