<svg width="24" height="24" viewBox="0 0 24 24" fill="none" xmlns="http://www.w3.org/2000/svg">
<g clip-path="url(#clip0_119_14110)">
<path d="M23.9999 10.0002C24 9.92721 23.9919 9.85443 23.9759 9.78321L22.6759 3.91521C22.4344 2.80144 21.8173 1.80459 20.9281 1.09179C20.0388 0.378987 18.9316 -0.00641431 17.7919 0.000205959H6.20794C5.06899 -0.00549434 3.96267 0.380328 3.07427 1.09305C2.18587 1.80578 1.56934 2.80212 1.32794 3.91521L0.0239403 9.78321C0.00794844 9.85443 -0.000100695 9.92721 -5.96658e-05 10.0002V11.0002C-0.000866473 11.9738 0.354862 12.914 0.99994 13.6432V19.0002C1.00153 20.3258 1.52882 21.5967 2.46616 22.534C3.4035 23.4713 4.67435 23.9986 5.99994 24.0002H17.9999C19.3255 23.9986 20.5964 23.4713 21.5337 22.534C22.4711 21.5967 22.9984 20.3258 22.9999 19.0002V13.6432C23.645 12.914 24.0008 11.9738 23.9999 11.0002V10.0002ZM1.99994 10.1092L3.27994 4.34921C3.42498 3.68146 3.79496 3.08378 4.32795 2.65618C4.86095 2.22858 5.52463 1.99701 6.20794 2.00021H6.99994V5.00021C6.99994 5.26542 7.1053 5.51978 7.29283 5.70731C7.48037 5.89485 7.73472 6.00021 7.99994 6.00021C8.26516 6.00021 8.51951 5.89485 8.70705 5.70731C8.89458 5.51978 8.99994 5.26542 8.99994 5.00021V2.00021H14.9999V5.00021C14.9999 5.26542 15.1053 5.51978 15.2928 5.70731C15.4804 5.89485 15.7347 6.00021 15.9999 6.00021C16.2652 6.00021 16.5195 5.89485 16.7071 5.70731C16.8946 5.51978 16.9999 5.26542 16.9999 5.00021V2.00021H17.7919C18.4753 1.99701 19.1389 2.22858 19.6719 2.65618C20.2049 3.08378 20.5749 3.68146 20.7199 4.34921L21.9999 10.1092V11.0002C21.9999 11.5306 21.7892 12.0393 21.4142 12.4144C21.0391 12.7895 20.5304 13.0002 19.9999 13.0002H18.9999C18.4695 13.0002 17.9608 12.7895 17.5857 12.4144C17.2107 12.0393 16.9999 11.5306 16.9999 11.0002C16.9999 10.735 16.8946 10.4806 16.7071 10.2931C16.5195 10.1056 16.2652 10.0002 15.9999 10.0002C15.7347 10.0002 15.4804 10.1056 15.2928 10.2931C15.1053 10.4806 14.9999 10.735 14.9999 11.0002C14.9999 11.5306 14.7892 12.0393 14.4142 12.4144C14.0391 12.7895 13.5304 13.0002 12.9999 13.0002H10.9999C10.4695 13.0002 9.9608 12.7895 9.58573 12.4144C9.21066 12.0393 8.99994 11.5306 8.99994 11.0002C8.99994 10.735 8.89458 10.4806 8.70705 10.2931C8.51951 10.1056 8.26516 10.0002 7.99994 10.0002C7.73472 10.0002 7.48037 10.1056 7.29283 10.2931C7.1053 10.4806 6.99994 10.735 6.99994 11.0002C6.99994 11.5306 6.78923 12.0393 6.41415 12.4144C6.03908 12.7895 5.53037 13.0002 4.99994 13.0002H3.99994C3.46951 13.0002 2.9608 12.7895 2.58573 12.4144C2.21065 12.0393 1.99994 11.5306 1.99994 11.0002V10.1092ZM17.9999 22.0002H5.99994C5.20429 22.0002 4.44123 21.6841 3.87862 21.1215C3.31601 20.5589 2.99994 19.7959 2.99994 19.0002V14.8732C3.32654 14.9578 3.66257 15.0005 3.99994 15.0002H4.99994C5.56776 15.0005 6.1291 14.8796 6.64645 14.6456C7.1638 14.4116 7.62524 14.0698 7.99994 13.6432C8.37464 14.0698 8.83609 14.4116 9.35344 14.6456C9.87079 14.8796 10.4321 15.0005 10.9999 15.0002H12.9999C13.5678 15.0005 14.1291 14.8796 14.6464 14.6456C15.1638 14.4116 15.6252 14.0698 15.9999 13.6432C16.3746 14.0698 16.8361 14.4116 17.3534 14.6456C17.8708 14.8796 18.4321 15.0005 18.9999 15.0002H19.9999C20.3373 15.0005 20.6733 14.9578 20.9999 14.8732V19.0002C20.9999 19.7959 20.6839 20.5589 20.1213 21.1215C19.5587 21.6841 18.7956 22.0002 17.9999 22.0002Z" fill="#374957"/>
</g>
<defs>
<clipPath id="clip0_119_14110">
<rect width="24" height="24" fill="white"/>
</clipPath>
</defs>
</svg>
