<svg width="24" height="24" viewBox="0 0 24 24" fill="none" xmlns="http://www.w3.org/2000/svg">
<g clip-path="url(#clip0_119_14095)">
<path d="M18.9999 14.0006C18.1769 14.006 17.3683 14.2174 16.6479 14.6156L13.2999 10.6006L20.7669 1.64061C20.9292 1.4361 21.0051 1.17625 20.9783 0.916564C20.9516 0.656879 20.8243 0.417951 20.6238 0.250824C20.4232 0.0836972 20.1653 0.00162366 19.905 0.0221372C19.6447 0.0426507 19.4028 0.164125 19.2309 0.360608L11.9999 9.03861L4.76794 0.360608C4.59605 0.164125 4.35414 0.0426507 4.09388 0.0221372C3.83363 0.00162366 3.57567 0.0836972 3.37512 0.250824C3.17457 0.417951 3.04732 0.656879 3.02057 0.916564C2.99382 1.17625 3.06968 1.4361 3.23194 1.64061L10.6999 10.6006L7.35194 14.6156C6.6314 14.2179 5.82293 14.0065 4.99994 14.0006C4.01103 14.0006 3.04434 14.2939 2.22209 14.8433C1.39984 15.3927 0.758982 16.1736 0.380544 17.0872C0.00210539 18.0008 -0.0969113 19.0062 0.0960148 19.9761C0.288941 20.946 0.765145 21.8369 1.46441 22.5361C2.16367 23.2354 3.05458 23.7116 4.02449 23.9045C4.99439 24.0975 5.99973 23.9984 6.91336 23.62C7.82699 23.2416 8.60788 22.6007 9.15729 21.7785C9.7067 20.9562 9.99994 19.9895 9.99994 19.0006C9.99421 17.8706 9.60179 16.7766 8.88794 15.9006L11.9999 12.1626L15.1109 15.9006C14.398 16.7771 14.006 17.8708 13.9999 19.0006C13.9999 19.9895 14.2932 20.9562 14.8426 21.7785C15.392 22.6007 16.1729 23.2416 17.0865 23.62C18.0002 23.9984 19.0055 24.0975 19.9754 23.9045C20.9453 23.7116 21.8362 23.2354 22.5355 22.5361C23.2347 21.8369 23.7109 20.946 23.9039 19.9761C24.0968 19.0062 23.9978 18.0008 23.6193 17.0872C23.2409 16.1736 22.6 15.3927 21.7778 14.8433C20.9555 14.2939 19.9888 14.0006 18.9999 14.0006V14.0006ZM4.99994 22.0006C4.4066 22.0006 3.82658 21.8247 3.33323 21.495C2.83988 21.1654 2.45537 20.6968 2.2283 20.1487C2.00124 19.6005 1.94183 18.9973 2.05759 18.4153C2.17334 17.8334 2.45906 17.2988 2.87862 16.8793C3.29818 16.4597 3.83273 16.174 4.41467 16.0583C4.99661 15.9425 5.59981 16.0019 6.14799 16.229C6.69617 16.456 7.16471 16.8406 7.49435 17.3339C7.82399 17.8272 7.99994 18.4073 7.99994 19.0006C7.99994 19.7963 7.68387 20.5593 7.12126 21.1219C6.55865 21.6845 5.79559 22.0006 4.99994 22.0006ZM18.9999 22.0006C18.4066 22.0006 17.8266 21.8247 17.3332 21.495C16.8399 21.1654 16.4554 20.6968 16.2283 20.1487C16.0012 19.6005 15.9418 18.9973 16.0576 18.4153C16.1733 17.8334 16.4591 17.2988 16.8786 16.8793C17.2982 16.4597 17.8327 16.174 18.4147 16.0583C18.9966 15.9425 19.5998 16.0019 20.148 16.229C20.6962 16.456 21.1647 16.8406 21.4944 17.3339C21.824 17.8272 21.9999 18.4073 21.9999 19.0006C21.9999 19.7963 21.6839 20.5593 21.1213 21.1219C20.5587 21.6845 19.7956 22.0006 18.9999 22.0006Z" fill="#374957"/>
</g>
<defs>
<clipPath id="clip0_119_14095">
<rect width="24" height="24" fill="white"/>
</clipPath>
</defs>
</svg>
