<svg width="24" height="24" viewBox="0 0 24 24" fill="none" xmlns="http://www.w3.org/2000/svg">
<g clip-path="url(#clip0_119_13802)">
<path d="M20.8999 4.29106C20.5477 3.32728 19.9081 2.49486 19.0675 1.9063C18.227 1.31773 17.226 1.0014 16.1999 1.00006H7.7999C6.77378 1.0014 5.7728 1.31773 4.93226 1.9063C4.09171 2.49486 3.45211 3.32728 3.0999 4.29106L0.399898 11.7181C0.134347 12.4495 -0.00103154 13.2219 -0.000102058 14.0001V15.0001C0.00168227 15.7729 0.18333 16.5346 0.530463 17.2251C0.877596 17.9155 1.38068 18.5157 1.9999 18.9781C1.9999 18.9861 1.9999 18.9921 1.9999 19.0001V21.0001C1.9999 21.7957 2.31597 22.5588 2.87858 23.1214C3.44119 23.684 4.20425 24.0001 4.9999 24.0001C5.79555 24.0001 6.55861 23.684 7.12122 23.1214C7.68383 22.5588 7.9999 21.7957 7.9999 21.0001V20.0001H15.9999V21.0001C15.9999 21.7957 16.316 22.5588 16.8786 23.1214C17.4412 23.684 18.2042 24.0001 18.9999 24.0001C19.7955 24.0001 20.5586 23.684 21.1212 23.1214C21.6838 22.5588 21.9999 21.7957 21.9999 21.0001V19.0001C21.9999 18.9921 21.9999 18.9861 21.9999 18.9781C22.6191 18.5157 23.1222 17.9155 23.4693 17.2251C23.8165 16.5346 23.9981 15.7729 23.9999 15.0001V14.0001C24.0009 13.2222 23.8655 12.4502 23.5999 11.7191L20.8999 4.29106ZM4.9819 4.97506C5.19334 4.39723 5.57683 3.89811 6.08071 3.54497C6.58458 3.19183 7.1846 3.00165 7.7999 3.00006H16.1999C16.8155 3.00124 17.416 3.19123 17.9203 3.5444C18.4245 3.89756 18.8083 4.39691 19.0199 4.97506L21.2079 11.0001H2.7909L4.9819 4.97506ZM5.9999 21.0001C5.9999 21.2653 5.89454 21.5196 5.70701 21.7072C5.51947 21.8947 5.26512 22.0001 4.9999 22.0001C4.73468 22.0001 4.48033 21.8947 4.29279 21.7072C4.10526 21.5196 3.9999 21.2653 3.9999 21.0001V19.9001C4.32903 19.9669 4.66405 20.0004 4.9999 20.0001H5.9999V21.0001ZM19.9999 21.0001C19.9999 21.2653 19.8945 21.5196 19.707 21.7072C19.5195 21.8947 19.2651 22.0001 18.9999 22.0001C18.7347 22.0001 18.4803 21.8947 18.2928 21.7072C18.1053 21.5196 17.9999 21.2653 17.9999 21.0001V20.0001H18.9999C19.3357 20.0004 19.6708 19.9669 19.9999 19.9001V21.0001ZM21.9999 15.0001C21.9999 15.7957 21.6838 16.5588 21.1212 17.1214C20.5586 17.684 19.7955 18.0001 18.9999 18.0001H4.9999C4.20425 18.0001 3.44119 17.684 2.87858 17.1214C2.31597 16.5588 1.9999 15.7957 1.9999 15.0001V14.0001C2.00397 13.6633 2.04454 13.328 2.1209 13.0001H3.9999V14.0001C3.9999 14.2653 4.10526 14.5196 4.29279 14.7072C4.48033 14.8947 4.73468 15.0001 4.9999 15.0001C5.26512 15.0001 5.51947 14.8947 5.70701 14.7072C5.89454 14.5196 5.9999 14.2653 5.9999 14.0001V13.0001H17.9999V14.0001C17.9999 14.2653 18.1053 14.5196 18.2928 14.7072C18.4803 14.8947 18.7347 15.0001 18.9999 15.0001C19.2651 15.0001 19.5195 14.8947 19.707 14.7072C19.8945 14.5196 19.9999 14.2653 19.9999 14.0001V13.0001H21.8789C21.9553 13.328 21.9959 13.6633 21.9999 14.0001V15.0001Z" fill="#374957"/>
</g>
<defs>
<clipPath id="clip0_119_13802">
<rect width="24" height="24" fill="white"/>
</clipPath>
</defs>
</svg>
