<svg width="24" height="24" viewBox="0 0 24 24" fill="none" xmlns="http://www.w3.org/2000/svg">
<path d="M18.0001 12C17.9952 11.4739 17.7832 10.9709 17.4101 10.6L13.1201 6.29999C12.9327 6.11374 12.6792 6.0092 12.4151 6.0092C12.1509 6.0092 11.8974 6.11374 11.7101 6.29999C11.6163 6.39296 11.5419 6.50356 11.4912 6.62542C11.4404 6.74728 11.4143 6.87798 11.4143 7.00999C11.4143 7.142 11.4404 7.27271 11.4912 7.39457C11.5419 7.51643 11.6163 7.62703 11.7101 7.71999L15.0001 11H5.00006C4.73484 11 4.48049 11.1053 4.29295 11.2929C4.10542 11.4804 4.00006 11.7348 4.00006 12C4.00006 12.2652 4.10542 12.5196 4.29295 12.7071C4.48049 12.8946 4.73484 13 5.00006 13H15.0001L11.7101 16.29C11.5218 16.477 11.4154 16.7311 11.4145 16.9964C11.4136 17.2618 11.5181 17.5167 11.7051 17.705C11.892 17.8933 12.1462 17.9996 12.4115 18.0005C12.6769 18.0015 12.9318 17.897 13.1201 17.71L17.4101 13.41C17.7856 13.0366 17.9978 12.5296 18.0001 12V12Z" fill="#374957"/>
</svg>
