<svg width="24" height="24" viewBox="0 0 24 24" fill="none" xmlns="http://www.w3.org/2000/svg">
<g clip-path="url(#clip0_119_14154)">
<path d="M20.4849 3.51584C18.8071 1.83957 16.6699 0.698366 14.3436 0.236484C12.0173 -0.225399 9.60633 0.012776 7.41536 0.920903C5.2244 1.82903 3.35185 3.36634 2.03443 5.3385C0.717008 7.31066 0.013855 9.62913 0.013855 12.0008C0.013855 14.3726 0.717008 16.691 2.03443 18.6632C3.35185 20.6353 5.2244 22.1727 7.41536 23.0808C9.60633 23.9889 12.0173 24.2271 14.3436 23.7652C16.6699 23.3033 18.8071 22.1621 20.4849 20.4858C22.732 18.2337 23.994 15.1822 23.994 12.0008C23.994 8.81944 22.732 5.76794 20.4849 3.51584V3.51584ZM21.9339 10.9328C20.7348 11.0783 19.5182 10.9491 18.3764 10.5549C17.2345 10.1608 16.1973 9.51209 15.3431 8.65788C14.489 7.80367 13.8404 6.76636 13.4464 5.62446C13.0524 4.48257 12.9233 3.266 13.0689 2.06684C15.3387 2.30547 17.4576 3.31627 19.0713 4.93015C20.685 6.54402 21.6956 8.66309 21.9339 10.9328V10.9328ZM2.06593 13.0688C3.2651 12.9234 4.48166 13.0526 5.62351 13.4467C6.76537 13.8409 7.8026 14.4896 8.65671 15.3438C9.51082 16.198 10.1594 17.2353 10.5534 18.3772C10.9474 19.5191 11.0765 20.7357 10.9309 21.9348C8.6612 21.6962 6.54225 20.6854 4.92856 19.0715C3.31487 17.4577 2.3043 15.3386 2.06593 13.0688V13.0688ZM19.0709 19.0688C17.428 20.7153 15.2601 21.734 12.9439 21.9478C13.0874 20.4811 12.904 19.0008 12.4069 17.6135C11.9098 16.2261 11.1113 14.9662 10.0689 13.9244C9.02656 12.8826 7.76622 12.0848 6.3786 11.5885C4.99097 11.0921 3.51058 10.9095 2.04393 11.0538C2.26144 8.73813 3.28102 6.57114 4.92651 4.9273C6.57199 3.28345 8.74 2.26604 11.0559 2.05084C10.9215 3.43739 11.0786 4.83675 11.5172 6.15896C11.9558 7.48117 12.6662 8.69698 13.6027 9.72825C14.5392 10.7595 15.6812 11.5834 16.9551 12.1471C18.2291 12.7107 19.6069 13.0015 20.9999 13.0008C21.3169 13.0008 21.6349 12.9848 21.9529 12.9548C21.7357 15.2677 20.7162 17.4318 19.0709 19.0718V19.0688Z" fill="#374957"/>
</g>
<defs>
<clipPath id="clip0_119_14154">
<rect width="24" height="24" fill="white"/>
</clipPath>
</defs>
</svg>
