<svg width="24" height="24" viewBox="0 0 24 24" fill="none" xmlns="http://www.w3.org/2000/svg">
<g clip-path="url(#clip0_119_13801)">
<path d="M5.00493 24H18.9999C19.8424 23.9999 20.6711 23.7869 21.4092 23.3809C22.1473 22.9748 22.7709 22.3889 23.222 21.6774C23.6731 20.9659 23.9371 20.152 23.9896 19.3112C24.042 18.4704 23.8811 17.63 23.5219 16.868L16.5349 2.90001C16.1345 2.03793 15.4965 1.30787 14.6959 0.795409C13.8953 0.282944 12.9653 0.00931066 12.0147 0.00658189C11.0641 0.00385312 10.1325 0.272142 9.32898 0.780002C8.52546 1.28786 7.88336 2.01425 7.47793 2.87401L0.477934 16.874L0.469934 16.9C0.117439 17.6617 -0.0376595 18.4998 0.0189351 19.3372C0.0755297 20.1745 0.341996 20.9842 0.793774 21.6915C1.24555 22.3988 1.8681 22.981 2.60405 23.3844C3.34 23.7879 4.16566 23.9996 5.00493 24V24ZM8.40493 22L11.1219 16.562C11.1984 16.3936 11.322 16.2509 11.4778 16.1511C11.6336 16.0514 11.8149 15.9989 11.9999 16C12.1899 16.0001 12.3757 16.0559 12.5344 16.1604C12.6931 16.2649 12.8178 16.4135 12.8929 16.588L15.5999 22H8.40493ZM2.27793 17.748L9.27793 3.73601C9.51989 3.21511 9.90629 2.77462 10.3912 2.46686C10.8762 2.15909 11.4393 1.99701 12.0136 1.99985C12.5879 2.00269 13.1494 2.17035 13.6313 2.48289C14.1131 2.79544 14.4951 3.23974 14.7319 3.76301L21.7199 17.736C21.9323 18.1931 22.0261 18.6963 21.9926 19.1992C21.9591 19.7021 21.7995 20.1885 21.5284 20.6134C21.2574 21.0383 20.8836 21.3881 20.4417 21.6304C19.9998 21.8728 19.5039 21.9999 18.9999 22H17.8359L14.6999 15.72C14.4625 15.2085 14.0844 14.7752 13.6099 14.4706C13.1353 14.166 12.5839 14.0027 12.02 13.9999C11.4561 13.9971 10.9031 14.1548 10.4255 14.4546C9.94788 14.7544 9.56547 15.1839 9.32293 15.693L6.16793 22H5.00493C4.50192 22.0001 4.00695 21.8738 3.56555 21.6326C3.12414 21.3913 2.75048 21.043 2.47892 20.6196C2.20737 20.1962 2.04664 19.7113 2.01152 19.2095C1.97639 18.7077 2.06801 18.2051 2.27793 17.748V17.748Z" fill="#374957"/>
</g>
<defs>
<clipPath id="clip0_119_13801">
<rect width="24" height="24" fill="white"/>
</clipPath>
</defs>
</svg>
