<svg width="24" height="24" viewBox="0 0 24 24" fill="none" xmlns="http://www.w3.org/2000/svg">
<g clip-path="url(#clip0_119_14060)">
<path d="M14.9998 3.84864C15.0029 4.0475 15.0641 4.24111 15.1759 4.40564C15.2876 4.57016 15.4451 4.69842 15.6288 4.77464C17.271 5.49722 18.6598 6.69414 19.6168 8.21174C20.5738 9.72934 21.0554 11.4983 20.9998 13.2916C20.961 15.6786 19.9757 17.9524 18.2605 19.6128C16.5453 21.2733 14.2407 22.1844 11.8538 22.1456C9.46682 22.1069 7.19302 21.1216 5.53257 19.4064C3.87212 17.6912 2.96105 15.3866 2.99977 12.9996C3.00208 11.2559 3.51091 9.55031 4.46442 8.09032C5.41792 6.63032 6.77503 5.47877 8.37077 4.77564C8.55456 4.69897 8.71197 4.57032 8.8237 4.40547C8.93544 4.24063 8.99663 4.04676 8.99977 3.84764V3.84764C9.00002 3.68385 8.96005 3.5225 8.88335 3.37778C8.80664 3.23306 8.69557 3.10939 8.55988 3.01765C8.4242 2.92591 8.26805 2.8689 8.10517 2.85164C7.9423 2.83437 7.77767 2.85738 7.62577 2.91864C5.30505 3.92478 3.40199 5.69998 2.23713 7.94523C1.07227 10.1905 0.716795 12.7686 1.23058 15.2453C1.74436 17.722 3.096 19.946 5.05784 21.5426C7.01968 23.1392 9.47183 24.011 12.0013 24.011C14.5307 24.011 16.9829 23.1392 18.9447 21.5426C20.9065 19.946 22.2582 17.722 22.772 15.2453C23.2857 12.7686 22.9303 10.1905 21.7654 7.94523C20.6005 5.69998 18.6975 3.92478 16.3768 2.91864C16.2246 2.85671 16.0596 2.83322 15.8962 2.85022C15.7329 2.86723 15.5762 2.92422 15.4401 3.01615C15.304 3.10808 15.1926 3.23212 15.1158 3.37732C15.039 3.52251 14.9991 3.68439 14.9998 3.84864V3.84864Z" fill="#374957"/>
<path d="M13.0002 1C13.0002 0.447715 12.5524 0 12.0002 0C11.4479 0 11.0002 0.447715 11.0002 1V7C11.0002 7.55228 11.4479 8 12.0002 8C12.5524 8 13.0002 7.55228 13.0002 7V1Z" fill="#374957"/>
</g>
<defs>
<clipPath id="clip0_119_14060">
<rect width="24" height="24" fill="white"/>
</clipPath>
</defs>
</svg>
