<svg width="24" height="24" viewBox="0 0 24 24" fill="none" xmlns="http://www.w3.org/2000/svg">
<path d="M19 4.99982H16V3.99982C16 3.20417 15.6839 2.44111 15.1213 1.8785C14.5587 1.31589 13.7956 0.999817 13 0.999817H11C10.2044 0.999817 9.44129 1.31589 8.87868 1.8785C8.31607 2.44111 8 3.20417 8 3.99982V4.99982H5C3.6744 5.0014 2.40356 5.5287 1.46622 6.46604C0.528882 7.40337 0.00158786 8.67422 0 9.99982L0 17.9998C0.00158786 19.3254 0.528882 20.5963 1.46622 21.5336C2.40356 22.4709 3.6744 22.9982 5 22.9998H19C20.3256 22.9982 21.5964 22.4709 22.5338 21.5336C23.4711 20.5963 23.9984 19.3254 24 17.9998V9.99982C23.9984 8.67422 23.4711 7.40337 22.5338 6.46604C21.5964 5.5287 20.3256 5.0014 19 4.99982V4.99982ZM10 3.99982C10 3.7346 10.1054 3.48025 10.2929 3.29271C10.4804 3.10517 10.7348 2.99982 11 2.99982H13C13.2652 2.99982 13.5196 3.10517 13.7071 3.29271C13.8946 3.48025 14 3.7346 14 3.99982V4.99982H10V3.99982ZM22 17.9998C22 18.7955 21.6839 19.5585 21.1213 20.1211C20.5587 20.6837 19.7956 20.9998 19 20.9998H5C4.20435 20.9998 3.44129 20.6837 2.87868 20.1211C2.31607 19.5585 2 18.7955 2 17.9998V9.99982C2 9.20417 2.31607 8.44111 2.87868 7.8785C3.44129 7.31589 4.20435 6.99982 5 6.99982H19C19.7956 6.99982 20.5587 7.31589 21.1213 7.8785C21.6839 8.44111 22 9.20417 22 9.99982V17.9998ZM16 13.9998C16 14.265 15.8946 14.5194 15.7071 14.7069C15.5196 14.8945 15.2652 14.9998 15 14.9998H13V16.9998C13 17.265 12.8946 17.5194 12.7071 17.7069C12.5196 17.8945 12.2652 17.9998 12 17.9998C11.7348 17.9998 11.4804 17.8945 11.2929 17.7069C11.1054 17.5194 11 17.265 11 16.9998V14.9998H9C8.73478 14.9998 8.48043 14.8945 8.29289 14.7069C8.10536 14.5194 8 14.265 8 13.9998C8 13.7346 8.10536 13.4802 8.29289 13.2927C8.48043 13.1052 8.73478 12.9998 9 12.9998H11V10.9998C11 10.7346 11.1054 10.4802 11.2929 10.2927C11.4804 10.1052 11.7348 9.99982 12 9.99982C12.2652 9.99982 12.5196 10.1052 12.7071 10.2927C12.8946 10.4802 13 10.7346 13 10.9998V12.9998H15C15.2652 12.9998 15.5196 13.1052 15.7071 13.2927C15.8946 13.4802 16 13.7346 16 13.9998Z" fill="#374957"/>
</svg>
