<svg width="24" height="24" viewBox="0 0 24 24" fill="none" xmlns="http://www.w3.org/2000/svg">
<g clip-path="url(#clip0_119_13828)">
<path d="M21.7811 20.3669C23.057 19.1049 23.8376 17.4269 23.9811 15.6379C24.132 13.8235 23.6564 12.0121 22.6335 10.5059C21.6106 8.99972 20.1023 7.88968 18.3601 7.36095C18.1887 7.3075 18.0332 7.21253 17.9074 7.08447C17.7816 6.95641 17.6894 6.79924 17.6391 6.62695C17.244 5.33205 16.5253 4.1593 15.5507 3.21958C14.5762 2.27986 13.3781 1.60422 12.0697 1.25655C10.7613 0.908873 9.3858 0.900653 8.07333 1.23266C6.76086 1.56467 5.55475 2.22594 4.56905 3.15395L1.70705 0.292949C1.51845 0.110791 1.26585 0.00999693 1.00365 0.0122754C0.741453 0.0145538 0.490641 0.119723 0.305233 0.305131C0.119824 0.490539 0.0146555 0.741351 0.0123771 1.00355C0.0100987 1.26574 0.110893 1.51835 0.293051 1.70695L22.2931 23.7069C22.4817 23.8891 22.7343 23.9899 22.9965 23.9876C23.2587 23.9853 23.5095 23.8802 23.6949 23.6948C23.8803 23.5094 23.9855 23.2585 23.9877 22.9963C23.99 22.7342 23.8892 22.4815 23.7071 22.2929L21.7811 20.3669ZM9.10005 3.06495C10.5187 2.84963 11.9676 3.15058 13.1832 3.91307C14.3988 4.67557 15.3004 5.84898 15.7241 7.21995C15.872 7.70254 16.1355 8.14173 16.4917 8.49934C16.8479 8.85694 17.286 9.12216 17.7681 9.27195C19.0745 9.66926 20.2054 10.5024 20.972 11.6324C21.7386 12.7625 22.0948 14.1211 21.9811 15.4819C21.8778 16.7943 21.2993 18.0238 20.3541 18.9399L5.98205 4.56795C6.84954 3.76913 7.93478 3.24601 9.10005 3.06495V3.06495ZM16.9931 21.8279C17.0211 22.0914 16.9434 22.3552 16.7771 22.5614C16.6108 22.7677 16.3695 22.8995 16.1061 22.9279C15.6673 22.9751 15.2263 22.9985 14.7851 22.9979H5.68505C4.35167 22.9747 3.06636 22.496 2.04258 21.6414C1.01881 20.7868 0.318179 19.6077 0.0570512 18.2999C-0.112901 17.1753 0.0735545 16.0256 0.590253 15.0123C1.10695 13.999 1.92796 13.1729 2.93805 12.6499C2.13825 11.1896 1.83699 9.50812 2.08005 7.86095C2.11692 7.59825 2.25663 7.36096 2.46845 7.20127C2.68027 7.04159 2.94685 6.97258 3.20955 7.00945C3.47225 7.04631 3.70954 7.18603 3.86923 7.39785C4.02892 7.60967 4.09792 7.87625 4.06105 8.13895C3.88342 9.36727 4.09315 10.6204 4.66105 11.7239C4.91135 12.1875 4.96868 12.731 4.82058 13.2366C4.67247 13.7421 4.3309 14.1688 3.87005 14.4239C3.22683 14.7574 2.70421 15.2839 2.37562 15.9296C2.04704 16.5753 1.92898 17.3077 2.03805 18.0239C2.2245 18.8566 2.68511 19.6025 3.34604 20.1421C4.00698 20.6817 4.82996 20.9838 5.68305 20.9999H14.7831C15.1528 21.0003 15.5224 20.9806 15.8901 20.9409C16.1537 20.914 16.4174 20.9919 16.6241 21.1579C16.8307 21.3239 16.9636 21.5646 16.9941 21.8279H16.9931Z" fill="#374957"/>
</g>
<defs>
<clipPath id="clip0_119_13828">
<rect width="24" height="24" fill="white"/>
</clipPath>
</defs>
</svg>
