<svg width="24" height="24" viewBox="0 0 24 24" fill="none" xmlns="http://www.w3.org/2000/svg">
<g clip-path="url(#clip0_119_13799)">
<path d="M23.9799 2.02298V6.02298C23.9799 6.2882 23.8745 6.54255 23.687 6.73009C23.4994 6.91763 23.2451 7.02298 22.9799 7.02298C22.7147 7.02298 22.4603 6.91763 22.2728 6.73009C22.0852 6.54255 21.9799 6.2882 21.9799 6.02298V3.45998L16.6799 8.73198C16.4908 8.91368 16.2379 9.01382 15.9756 9.01083C15.7134 9.00784 15.4628 8.90196 15.2779 8.716C15.093 8.53004 14.9886 8.27888 14.9871 8.01664C14.9855 7.75439 15.0871 7.50205 15.2699 7.31398L20.5899 2.02298H17.9799C17.7147 2.02298 17.4603 1.91763 17.2728 1.73009C17.0852 1.54255 16.9799 1.2882 16.9799 1.02298C16.9799 0.757766 17.0852 0.503412 17.2728 0.315875C17.4603 0.128339 17.7147 0.0229821 17.9799 0.0229821H21.9799C22.5103 0.0229821 23.019 0.233696 23.3941 0.608769C23.7692 0.983841 23.9799 1.49255 23.9799 2.02298ZM23.0749 16.762C23.6544 17.3431 23.9798 18.1303 23.9798 18.951C23.9798 19.7717 23.6544 20.5589 23.0749 21.14L22.1629 22.19C13.9719 30.028 -5.95712 10.105 1.76288 1.88998L2.91188 0.889982C3.49397 0.326753 4.27422 0.015043 5.08416 0.0221527C5.8941 0.0292624 6.66876 0.354621 7.24088 0.927982C7.27088 0.958982 9.12388 3.36698 9.12388 3.36698C9.67355 3.94443 9.97962 4.71145 9.9785 5.50868C9.97738 6.30592 9.66916 7.07208 9.11788 7.64798L7.95888 9.10498C8.59972 10.6621 9.54194 12.0772 10.7314 13.2691C11.9208 14.4609 13.3341 15.406 14.8899 16.05L16.3549 14.885C16.9307 14.334 17.6967 14.026 18.4937 14.0248C19.2907 14.0237 20.0575 14.3296 20.6349 14.879C20.6349 14.879 23.0439 16.732 23.0749 16.762ZM21.6999 18.216C21.6999 18.216 19.3069 16.374 19.2759 16.344C19.0699 16.1397 18.7915 16.0251 18.5014 16.0251C18.2113 16.0251 17.9329 16.1397 17.7269 16.344C17.6999 16.37 15.6829 17.978 15.6829 17.978C15.547 18.0862 15.3852 18.1571 15.2135 18.1837C15.0419 18.2104 14.8662 18.1919 14.7039 18.13C12.6871 17.38 10.8553 16.2049 9.33273 14.6844C7.81019 13.164 6.6326 11.3337 5.87988 9.31798C5.81403 9.1541 5.79275 8.9757 5.81822 8.80093C5.84369 8.62616 5.91499 8.46125 6.02488 8.32298C6.02488 8.32298 7.63188 6.30598 7.65888 6.27898C7.86314 6.07297 7.97776 5.7946 7.97776 5.50448C7.97776 5.21437 7.86314 4.936 7.65888 4.72998C7.62888 4.69998 5.78688 2.30598 5.78688 2.30598C5.5779 2.11836 5.30508 2.01777 5.02432 2.02484C4.74357 2.0319 4.47615 2.14608 4.27688 2.34398L3.12788 3.34398C-2.51612 10.126 14.7569 26.442 20.6999 20.826L21.6119 19.776C21.8269 19.5787 21.9564 19.3052 21.9728 19.0139C21.9893 18.7225 21.8913 18.4362 21.6999 18.216V18.216Z" fill="#374957"/>
</g>
<defs>
<clipPath id="clip0_119_13799">
<rect width="24" height="24" fill="white"/>
</clipPath>
</defs>
</svg>
