<svg width="24" height="24" viewBox="0 0 24 24" fill="none" xmlns="http://www.w3.org/2000/svg">
<g clip-path="url(#clip0_119_13997)">
<path d="M14.5 13.0005C14.2034 13.0005 13.9134 12.9125 13.6667 12.7477C13.42 12.5828 13.2278 12.3486 13.1142 12.0745C13.0007 11.8004 12.971 11.4988 13.0289 11.2078C13.0867 10.9168 13.2296 10.6496 13.4394 10.4398C13.6492 10.23 13.9164 10.0872 14.2074 10.0293C14.4984 9.9714 14.8 10.0011 15.0741 10.1146C15.3482 10.2282 15.5824 10.4204 15.7472 10.6671C15.9121 10.9138 16 11.2038 16 11.5005C16 11.8983 15.842 12.2798 15.5607 12.5611C15.2794 12.8424 14.8979 13.0005 14.5 13.0005ZM21.851 8.27445C21.4496 5.95455 20.2404 3.85143 18.4376 2.3372C16.6348 0.82297 14.3544 -0.0047641 12 0.000451746C5.10004 0.000451746 3.12404 4.67445 1.81904 7.76745C1.55442 8.6426 1.10457 9.45056 0.500043 10.1365C0.319452 10.2418 0.176413 10.4011 0.0910359 10.5919C0.00565876 10.7827 -0.0177625 10.9955 0.0240651 11.2003C0.0658926 11.4052 0.170865 11.5918 0.324225 11.7338C0.477584 11.8759 0.671617 11.9664 0.879043 11.9925C3.35085 12.2003 5.83687 11.8235 8.13604 10.8925C8.00919 11.1736 7.97208 11.487 8.02976 11.7899C8.08744 12.0929 8.23711 12.3708 8.45839 12.5856C8.67967 12.8004 8.96179 12.9419 9.26634 12.9906C9.57089 13.0393 9.88305 12.993 10.1603 12.8579C10.4376 12.7228 10.6664 12.5055 10.8158 12.2356C10.9651 11.9658 11.0276 11.6564 10.9948 11.3498C10.9619 11.0431 10.8354 10.754 10.6323 10.5219C10.4293 10.2897 10.1596 10.1258 9.86004 10.0525C11.8247 8.9519 13.518 7.42559 14.816 5.58545C14.8984 5.47906 14.9585 5.35714 14.9926 5.227C15.0267 5.09685 15.0343 4.96116 15.0147 4.82803C14.9952 4.69491 14.949 4.5671 14.8789 4.45225C14.8088 4.33741 14.7162 4.23789 14.6068 4.15966C14.4973 4.08143 14.3732 4.02609 14.2418 3.99697C14.1104 3.96784 13.9746 3.96553 13.8423 3.99016C13.71 4.01479 13.5841 4.06585 13.472 4.14031C13.3599 4.21476 13.264 4.31106 13.19 4.42345C12.0239 6.0653 10.5016 7.4222 8.73694 8.39265C6.97234 9.3631 5.01113 9.92197 3.00004 10.0275C3.22704 9.57445 3.43804 9.07145 3.66204 8.54445C4.89204 5.62845 6.42304 2.00045 12 2.00045C13.9759 1.99573 15.8832 2.72435 17.3526 4.04524C18.822 5.36613 19.749 7.18529 19.954 9.15045C19.9769 9.36532 20.0688 9.56698 20.2159 9.72526C20.363 9.88354 20.5574 9.98991 20.77 10.0285C21.1344 10.0997 21.4593 10.3035 21.6821 10.6005C21.9048 10.8975 22.0096 11.2666 21.976 11.6363C21.9424 12.006 21.7729 12.3501 21.5003 12.6021C21.2276 12.8541 20.8713 12.996 20.5 13.0005C20.4155 12.9981 20.3312 12.9891 20.248 12.9735C20.0148 12.9309 19.7741 12.9732 19.5692 13.0925C19.3644 13.2119 19.209 13.4006 19.131 13.6245C18.215 16.2215 15.132 19.0005 12 19.0005C9.10004 19.0005 6.40004 16.7175 5.23404 14.4615C5.11204 14.2259 4.90148 14.0485 4.64869 13.9683C4.39589 13.888 4.12156 13.9115 3.88604 14.0335C3.65053 14.1555 3.47313 14.366 3.39286 14.6188C3.3126 14.8716 3.33604 15.1459 3.45804 15.3815C4.49446 17.3153 6.07308 18.9043 8.00004 19.9535V23.0005C8.00004 23.2657 8.1054 23.52 8.29294 23.7076C8.48047 23.8951 8.73483 24.0005 9.00004 24.0005C9.26526 24.0005 9.51961 23.8951 9.70715 23.7076C9.89469 23.52 10 23.2657 10 23.0005V20.7385C11.3101 21.0904 12.6899 21.0904 14 20.7385V23.0005C14 23.2657 14.1054 23.52 14.2929 23.7076C14.4805 23.8951 14.7348 24.0005 15 24.0005C15.2653 24.0005 15.5196 23.8951 15.7072 23.7076C15.8947 23.52 16 23.2657 16 23.0005V19.9545C18.0642 18.8448 19.7215 17.1069 20.732 14.9925C21.5178 14.9388 22.2626 14.6217 22.8459 14.0924C23.4291 13.5631 23.8168 12.8526 23.9462 12.0756C24.0756 11.2987 23.9392 10.5008 23.559 9.81106C23.1788 9.12127 22.577 8.57989 21.851 8.27445V8.27445Z" fill="#374957"/>
</g>
<defs>
<clipPath id="clip0_119_13997">
<rect width="24" height="24" fill="white"/>
</clipPath>
</defs>
</svg>
