<svg width="24" height="24" viewBox="0 0 24 24" fill="none" xmlns="http://www.w3.org/2000/svg">
<g clip-path="url(#clip0_119_13919)">
<path d="M24 11.1004C24.0086 10.3529 23.7418 9.62844 23.2505 9.06503C22.7592 8.50162 22.0777 8.13869 21.336 8.04542C21.636 7.50042 22.072 6.23242 21.99 3.04542C21.9841 2.7245 21.9044 2.40924 21.7572 2.12401C21.61 1.83878 21.3992 1.59121 21.141 1.40042C20.896 1.21794 20.6123 1.09403 20.3119 1.03821C20.0115 0.982391 19.7023 0.996148 19.408 1.07842C17.9192 1.49559 16.5245 2.19531 15.3 3.13942C14.8111 2.32755 14.2685 1.54916 13.676 0.809422C13.4689 0.567611 13.212 0.373491 12.9227 0.240398C12.6335 0.107305 12.3189 0.0383911 12.0005 0.0383911C11.6822 0.0383911 11.3676 0.107305 11.0783 0.240398C10.7891 0.373491 10.5321 0.567611 10.325 0.809422C9.73482 1.54774 9.1943 2.32445 8.70704 3.13442C7.47617 2.19307 6.07773 1.49402 4.58604 1.07442C4.2925 0.992225 3.98395 0.978879 3.68441 1.03542C3.38487 1.09197 3.10242 1.21687 2.85904 1.40042C2.60115 1.59074 2.39046 1.8378 2.24325 2.12251C2.09604 2.40722 2.01625 2.72197 2.01004 3.04242C1.92804 6.23042 2.36704 7.49742 2.66204 8.04242C1.92028 8.13641 1.23903 8.50003 0.748111 9.06398C0.25719 9.62793 -0.00907931 10.3528 4.37958e-05 11.1004C4.37958e-05 15.3904 6.38704 18.2854 9.47804 19.4354C9.01335 19.8528 8.61182 20.3355 8.28605 20.8684C8.10013 21.1794 8.00095 21.5345 7.99884 21.8968C7.99673 22.2591 8.09176 22.6153 8.27405 22.9284C8.45989 23.2536 8.72826 23.5239 9.05204 23.7121C9.37581 23.9004 9.74353 23.9998 10.118 24.0004H13.882C14.257 23.9994 14.6249 23.8994 14.9487 23.7104C15.2726 23.5215 15.5407 23.2503 15.726 22.9244C15.9083 22.6115 16.0034 22.2555 16.0015 21.8934C15.9995 21.5313 15.9006 21.1764 15.715 20.8654C15.5268 20.5573 15.3099 20.2677 15.067 20.0004H16C16.5305 20.0004 17.0392 20.2111 17.4143 20.5862C17.7893 20.9613 18 21.47 18 22.0004C18 22.2656 18.1054 22.52 18.2929 22.7075C18.4805 22.8951 18.7348 23.0004 19 23.0004C19.2653 23.0004 19.5196 22.8951 19.7072 22.7075C19.8947 22.52 20 22.2656 20 22.0004C19.9975 21.1731 19.738 20.367 19.2573 19.6936C18.7767 19.0201 18.0987 18.5127 17.317 18.2414C20.415 16.7404 24 14.3104 24 11.1004ZM16.372 4.88442C17.3993 3.98672 18.6222 3.34156 19.943 3.00042C19.943 3.00042 19.989 3.01942 19.991 3.09342C20.054 5.52742 19.777 6.81342 19.521 7.17642C19.3746 7.39154 19.1853 7.57415 18.9651 7.71283C18.7448 7.85151 18.4983 7.94328 18.241 7.98242C17.9959 8.01704 17.7463 8.00044 17.5079 7.93365C17.2695 7.86687 17.0475 7.75136 16.856 7.59442C16.6412 7.45251 16.4575 7.26842 16.316 7.05333C16.1745 6.83824 16.0782 6.59664 16.033 6.3432C15.9877 6.08976 15.9944 5.82976 16.0527 5.57899C16.111 5.32823 16.2196 5.09192 16.372 4.88442V4.88442ZM11.892 2.05242C11.905 2.03599 11.9214 2.02271 11.9402 2.01358C11.959 2.00444 11.9796 1.9997 12.0005 1.9997C12.0214 1.9997 12.0421 2.00444 12.0609 2.01358C12.0797 2.02271 12.0961 2.03599 12.109 2.05242C12.8711 2.96212 13.5186 3.96193 14.037 5.02942C14.0577 5.06434 14.0807 5.09776 14.106 5.12942C13.9933 5.61946 13.98 6.12716 14.067 6.62242C13.9011 7.01955 13.6244 7.36047 13.2698 7.60441C12.9152 7.84836 12.4979 7.98499 12.0677 7.99796C11.6375 8.01094 11.2127 7.89971 10.844 7.67758C10.4754 7.45545 10.1786 7.13183 9.98905 6.74542C9.96706 6.71349 9.94336 6.68278 9.91805 6.65342C10.012 6.16023 10.0058 5.6532 9.90004 5.16242C9.9053 5.15478 9.90998 5.14676 9.91404 5.13842C10.433 4.02626 11.0982 2.98841 11.892 2.05242V2.05242ZM4.00904 3.09242C4.00862 3.07529 4.01178 3.05825 4.01832 3.04241C4.02487 3.02656 4.03465 3.01226 4.04704 3.00042C5.37675 3.3401 6.60922 3.98441 7.64704 4.88242C7.79481 5.09409 7.89859 5.33326 7.95223 5.58577C8.00587 5.83828 8.00828 6.09899 7.95932 6.35244C7.91037 6.6059 7.81103 6.84696 7.66721 7.06132C7.52339 7.27569 7.33801 7.45901 7.12204 7.60042C6.93268 7.75652 6.71292 7.87153 6.47673 7.93815C6.24053 8.00478 5.99307 8.02155 5.75004 7.98742C5.49384 7.94864 5.24848 7.85706 5.02952 7.71849C4.81055 7.57992 4.62276 7.39737 4.47804 7.18242C4.22204 6.81442 3.94604 5.52742 4.00904 3.09242ZM13.882 22.0004H10.118C10.056 22.0004 10.018 21.9544 10.006 21.8844C10.5078 21.1255 11.18 20.4943 11.969 20.0414C12.7888 20.4955 13.4826 21.1464 13.988 21.9354C13.9777 21.9546 13.9624 21.9708 13.9438 21.9822C13.9252 21.9936 13.9039 21.9999 13.882 22.0004V22.0004ZM14.676 17.2094C15.309 16.2901 15.7545 15.2551 15.987 14.1634C16.0303 13.9017 15.9677 13.6334 15.8132 13.4178C15.6587 13.2021 15.4248 13.0567 15.163 13.0134C14.9013 12.9702 14.6331 13.0327 14.4174 13.1873C14.2017 13.3418 14.0563 13.5757 14.013 13.8374C13.6321 15.1863 12.9481 16.4303 12.013 17.4744C11.0887 16.3958 10.3957 15.1388 9.97705 13.7814C9.94829 13.6533 9.89456 13.532 9.81894 13.4246C9.74333 13.3172 9.64729 13.2257 9.53632 13.1554C9.42536 13.0851 9.30163 13.0374 9.17221 13.0149C9.0428 12.9924 8.91021 12.9957 8.78204 13.0244C8.65387 13.0532 8.53262 13.1069 8.42522 13.1825C8.31781 13.2581 8.22635 13.3542 8.15605 13.4651C8.08576 13.5761 8.03801 13.6998 8.01553 13.8293C7.99305 13.9587 7.99628 14.0913 8.02504 14.2194C8.30555 15.2933 8.76498 16.3122 9.38404 17.2334C6.30004 15.9654 2.00004 13.6404 2.00004 11.1004C1.99557 10.9563 2.02036 10.8127 2.07292 10.6784C2.12548 10.5441 2.20472 10.4219 2.30585 10.3191C2.40698 10.2163 2.5279 10.135 2.66131 10.0803C2.79472 10.0255 2.93785 9.99833 3.08204 10.0004H20.918C21.0622 9.99833 21.2054 10.0255 21.3388 10.0803C21.4722 10.135 21.5931 10.2163 21.6942 10.3191C21.7954 10.4219 21.8746 10.5441 21.9272 10.6784C21.9797 10.8127 22.0045 10.9563 22 11.1004C22 13.6234 17.755 15.9354 14.676 17.2094Z" fill="#374957"/>
</g>
<defs>
<clipPath id="clip0_119_13919">
<rect width="24" height="24" fill="white"/>
</clipPath>
</defs>
</svg>
