<svg width="24" height="24" viewBox="0 0 24 24" fill="none" xmlns="http://www.w3.org/2000/svg">
<path d="M14.4992 13.5C14.4992 14.881 13.3802 16 11.9992 16C10.6182 16 9.49917 14.881 9.49917 13.5C9.49917 12.119 10.6182 11 11.9992 11C13.3802 11 14.4992 12.119 14.4992 13.5ZM22.2332 11.322C21.8602 10.917 21.2262 10.891 20.8202 11.265L15.1832 16.469C14.8122 16.811 14.3292 17 13.8262 17H10.1722C9.66817 17 9.18617 16.812 8.81617 16.47L3.17817 11.265C2.77317 10.891 2.13917 10.916 1.76517 11.322C1.39017 11.728 1.41517 12.361 1.82117 12.735L7.46017 17.94C7.62817 18.095 7.81117 18.229 8.00017 18.352V23C8.00017 23.552 8.44717 24 9.00017 24C9.55317 24 10.0002 23.552 10.0002 23V18.984C10.0582 18.987 10.1142 19 10.1732 19H13.8272C13.8852 19 13.9422 18.986 14.0002 18.984V23C14.0002 23.552 14.4472 24 15.0002 24C15.5532 24 16.0002 23.552 16.0002 23V18.352C16.1892 18.229 16.3722 18.095 16.5412 17.94L22.1792 12.735C22.5842 12.36 22.6102 11.728 22.2352 11.322H22.2332ZM6.99917 3C6.99917 1.346 8.34517 0 9.99917 0C10.7672 0 11.4682 0.29 11.9992 0.766C12.5302 0.29 13.2312 0 13.9992 0C15.6532 0 16.9992 1.346 16.9992 3C16.9992 5.674 13.3772 8.469 13.2232 8.587C12.8632 8.861 12.4312 8.999 11.9992 8.999C11.5672 8.999 11.1362 8.862 10.7762 8.588C10.6212 8.47 6.99917 5.673 6.99917 3ZM8.99917 3C8.99917 4.06 10.5512 5.9 11.9882 6.997C13.4472 5.9 14.9992 4.059 14.9992 3C14.9992 2.449 14.5512 2 13.9992 2C13.4472 2 12.9992 2.449 12.9992 3C12.9992 3.551 12.5522 4 11.9992 4C11.4462 4 10.9992 3.552 10.9992 3C10.9992 2.448 10.5512 2 9.99917 2C9.44717 2 8.99917 2.449 8.99917 3Z" fill="#374957"/>
</svg>
