<svg width="24" height="24" viewBox="0 0 24 24" fill="none" xmlns="http://www.w3.org/2000/svg">
<g clip-path="url(#clip0_119_14222)">
<path d="M23.339 7.129C23.0597 6.77638 22.7042 6.49161 22.2991 6.29608C21.894 6.10054 21.4498 5.99931 21 6H3C-3.654 7.04 2.364 15.791 5.833 17.341L4.053 22.684C4.0115 22.8088 3.99498 22.9405 4.00438 23.0716C4.01379 23.2027 4.04893 23.3307 4.1078 23.4483C4.16667 23.5659 4.24812 23.6707 4.3475 23.7568C4.44688 23.8428 4.56224 23.9085 4.687 23.95C4.81175 23.9915 4.94346 24.008 5.0746 23.9986C5.20574 23.9892 5.33374 23.9541 5.4513 23.8952C5.56886 23.8363 5.67367 23.7549 5.75976 23.6555C5.84584 23.5561 5.9115 23.4408 5.953 23.316L7.654 18.2C8.7286 18.607 9.85484 18.8618 11 18.957V23C11 23.2652 11.1054 23.5196 11.2929 23.7071C11.4804 23.8946 11.7348 24 12 24C12.2652 24 12.5196 23.8946 12.7071 23.7071C12.8946 23.5196 13 23.2652 13 23V18.957C14.1449 18.8615 15.2708 18.6064 16.345 18.199L18.051 23.316C18.0925 23.4408 18.1582 23.5561 18.2442 23.6555C18.3303 23.7549 18.4351 23.8363 18.5527 23.8952C18.6703 23.9541 18.7983 23.9892 18.9294 23.9986C19.0605 24.008 19.1922 23.9915 19.317 23.95C19.4418 23.9085 19.5571 23.8428 19.6565 23.7568C19.7559 23.6707 19.8373 23.5659 19.8962 23.4483C19.9551 23.3307 19.9902 23.2027 19.9996 23.0716C20.009 22.9405 19.9925 22.8088 19.951 22.684L18.17 17.339C21.009 15.85 25.622 10.4 23.339 7.129ZM21.972 9.244C19.488 19.5 4.506 19.5 2.026 9.244C1.98733 9.09605 1.98336 8.94117 2.01438 8.79144C2.04541 8.6417 2.1106 8.50115 2.20487 8.38075C2.29914 8.26035 2.41994 8.16334 2.55786 8.0973C2.69578 8.03126 2.84709 7.99796 3 8H21C21.1527 7.99847 21.3036 8.03213 21.4412 8.09837C21.5788 8.16461 21.6992 8.26164 21.7932 8.38195C21.8872 8.50226 21.9523 8.64261 21.9833 8.7921C22.0143 8.9416 22.0104 9.09623 21.972 9.244ZM11 3V1C11 0.734784 11.1054 0.48043 11.2929 0.292893C11.4804 0.105357 11.7348 0 12 0C12.2652 0 12.5196 0.105357 12.7071 0.292893C12.8946 0.48043 13 0.734784 13 1V3C13 3.26522 12.8946 3.51957 12.7071 3.70711C12.5196 3.89464 12.2652 4 12 4C11.7348 4 11.4804 3.89464 11.2929 3.70711C11.1054 3.51957 11 3.26522 11 3ZM15 3V1C15 0.734784 15.1054 0.48043 15.2929 0.292893C15.4804 0.105357 15.7348 0 16 0C16.2652 0 16.5196 0.105357 16.7071 0.292893C16.8946 0.48043 17 0.734784 17 1V3C17 3.26522 16.8946 3.51957 16.7071 3.70711C16.5196 3.89464 16.2652 4 16 4C15.7348 4 15.4804 3.89464 15.2929 3.70711C15.1054 3.51957 15 3.26522 15 3ZM7 3V1C7 0.734784 7.10536 0.48043 7.29289 0.292893C7.48043 0.105357 7.73478 0 8 0C8.26521 0 8.51957 0.105357 8.7071 0.292893C8.89464 0.48043 9 0.734784 9 1V3C9 3.26522 8.89464 3.51957 8.7071 3.70711C8.51957 3.89464 8.26521 4 8 4C7.73478 4 7.48043 3.89464 7.29289 3.70711C7.10536 3.51957 7 3.26522 7 3Z" fill="#374957"/>
</g>
<defs>
<clipPath id="clip0_119_14222">
<rect width="24" height="24" fill="white"/>
</clipPath>
</defs>
</svg>
