<svg width="24" height="24" viewBox="0 0 24 24" fill="none" xmlns="http://www.w3.org/2000/svg">
<g clip-path="url(#clip0_119_13938)">
<path d="M13 15.9997C14.5822 15.9997 16.1289 15.5305 17.4445 14.6514C18.7601 13.7724 19.7855 12.523 20.391 11.0611C20.9965 9.59934 21.1549 7.99081 20.8463 6.43896C20.5376 4.88711 19.7757 3.46165 18.6568 2.34283C17.538 1.22401 16.1126 0.46208 14.5607 0.153398C13.0089 -0.155283 11.4003 0.00314337 9.93851 0.608644C8.4767 1.21415 7.22727 2.23953 6.34822 3.55512C5.46917 4.87071 4.99998 6.41743 4.99998 7.99968C5.00236 10.1207 5.84598 12.1541 7.34576 13.6539C8.84553 15.1537 10.879 15.9973 13 15.9997ZM13 1.99968C14.1867 1.99968 15.3467 2.35157 16.3334 3.01086C17.3201 3.67015 18.0891 4.60722 18.5433 5.70358C18.9974 6.79994 19.1162 8.00634 18.8847 9.17022C18.6532 10.3341 18.0817 11.4032 17.2426 12.2423C16.4035 13.0814 15.3344 13.6529 14.1705 13.8844C13.0066 14.1159 11.8002 13.9971 10.7039 13.543C9.60752 13.0888 8.67045 12.3198 8.01116 11.3331C7.35187 10.3464 6.99998 9.18637 6.99998 7.99968C7.00157 6.40887 7.63422 4.88367 8.75909 3.75879C9.88397 2.63392 11.4092 2.00127 13 1.99968V1.99968ZM22.907 14.7727C21.8991 16.2412 20.5768 17.4667 19.0362 18.3603C17.4955 19.2539 15.7751 19.7931 14 19.9387V21.9997H18C18.2652 21.9997 18.5196 22.105 18.7071 22.2926C18.8946 22.4801 19 22.7345 19 22.9997C19 23.2649 18.8946 23.5193 18.7071 23.7068C18.5196 23.8943 18.2652 23.9997 18 23.9997H7.99998C7.73476 23.9997 7.48041 23.8943 7.29287 23.7068C7.10534 23.5193 6.99998 23.2649 6.99998 22.9997C6.99998 22.7345 7.10534 22.4801 7.29287 22.2926C7.48041 22.105 7.73476 21.9997 7.99998 21.9997H12V19.9487C9.81742 19.7671 7.72624 18.9914 5.95326 17.7057C4.18027 16.42 2.79316 14.6733 1.94238 12.6552C1.0916 10.6372 0.809624 8.42463 1.12704 6.25766C1.44445 4.09069 2.34914 2.05199 3.74298 0.362681C3.91192 0.158199 4.15517 0.0292042 4.41923 0.00407435C4.68328 -0.0210555 4.9465 0.0597378 5.15098 0.228681C5.35546 0.397624 5.48446 0.640877 5.50958 0.904928C5.53471 1.16898 5.45392 1.4322 5.28498 1.63668C4.42653 2.67919 3.78813 3.88478 3.40829 5.18074C3.02846 6.47669 2.91505 7.83616 3.07492 9.17713C3.23478 10.5181 3.6646 11.8128 4.33846 12.9831C5.01232 14.1535 5.91624 15.1752 6.99572 15.9867C8.07519 16.7982 9.30785 17.3826 10.6193 17.7047C11.9308 18.0268 13.294 18.08 14.6266 17.8609C15.9592 17.6419 17.2336 17.1552 18.373 16.4302C19.5123 15.7053 20.4931 14.757 21.256 13.6427C21.4058 13.4237 21.6365 13.2733 21.8973 13.2244C22.158 13.1756 22.4275 13.2323 22.6465 13.3822C22.8654 13.532 23.0159 13.7627 23.0647 14.0235C23.1136 14.2842 23.0568 14.5537 22.907 14.7727Z" fill="#374957"/>
</g>
<defs>
<clipPath id="clip0_119_13938">
<rect width="24" height="24" fill="white"/>
</clipPath>
</defs>
</svg>
