<svg width="24" height="24" viewBox="0 0 24 24" fill="none" xmlns="http://www.w3.org/2000/svg">
<g clip-path="url(#clip0_119_13831)">
<path d="M18.4002 7.3788C18.2193 7.3272 18.0542 7.23119 17.9199 7.0995C17.7856 6.96781 17.6863 6.80463 17.6312 6.6248C17.325 5.58684 16.8113 4.62181 16.1214 3.78809C15.4314 2.95438 14.5795 2.26931 13.6171 1.77436C12.6547 1.2794 11.602 0.984842 10.5225 0.908508C9.44298 0.832173 8.35922 0.975649 7.33678 1.33025C6.31434 1.68486 5.37448 2.24322 4.57406 2.97154C3.77364 3.69987 3.12932 4.58302 2.68007 5.56755C2.23082 6.55208 1.986 7.61753 1.96041 8.69941C1.93482 9.7813 2.129 10.8571 2.5312 11.8618C2.62359 12.0732 2.64348 12.3093 2.58778 12.5332C2.53207 12.7571 2.40389 12.9563 2.2232 13.0998C1.42692 13.6908 0.805241 14.4861 0.423947 15.4015C0.0426523 16.3168 -0.0840687 17.3183 0.0571956 18.2998C0.277649 19.6267 0.96652 20.8305 1.99878 21.6929C3.03104 22.5553 4.33826 23.0189 5.6832 22.9998H11.0002C11.2654 22.9998 11.5198 22.8944 11.7073 22.7069C11.8948 22.5194 12.0002 22.265 12.0002 21.9998C12.0002 21.7346 11.8948 21.4802 11.7073 21.2927C11.5198 21.1052 11.2654 20.9998 11.0002 20.9998H5.6832C4.81948 21.0208 3.97682 20.7316 3.30796 20.1847C2.63909 19.6379 2.18827 18.8695 2.0372 18.0188C1.94139 17.3935 2.01904 16.754 2.26167 16.1698C2.5043 15.5856 2.90261 15.0792 3.4132 14.7058C3.94952 14.305 4.33748 13.7373 4.51613 13.092C4.69478 12.4467 4.654 11.7604 4.4002 11.1408C3.89835 9.8155 3.87254 8.35702 4.3272 7.0148C4.69039 5.96337 5.34078 5.03467 6.20468 4.3339C7.06858 3.63313 8.11147 3.1883 9.2152 3.0498C9.47121 3.01684 9.72906 3.00014 9.9872 2.9998C11.2803 2.99553 12.5399 3.41023 13.5775 4.18179C14.6152 4.95335 15.375 6.04027 15.7432 7.2798C15.8869 7.75217 16.1459 8.18137 16.4968 8.52875C16.8476 8.87614 17.2794 9.1308 17.7532 9.2698C18.9127 9.61272 19.9398 10.3017 20.6969 11.2444C21.454 12.1872 21.9051 13.3387 21.9897 14.5449C22.0743 15.7511 21.7885 16.9543 21.1704 17.9935C20.5523 19.0327 19.6315 19.8583 18.5312 20.3598C18.3684 20.4432 18.2322 20.5706 18.1383 20.7276C18.0445 20.8847 17.9966 21.0649 18.0002 21.2478V21.2478C17.9982 21.4133 18.0379 21.5766 18.1155 21.7227C18.1931 21.8689 18.3062 21.9932 18.4443 22.0843C18.5825 22.1754 18.7413 22.2303 18.9063 22.244C19.0712 22.2577 19.2369 22.2298 19.3882 22.1628C23.5222 20.1758 25.7682 14.9488 22.2682 9.8988C21.3045 8.64171 19.9395 7.75241 18.4002 7.3788V7.3788Z" fill="#374957"/>
<path d="M18.7071 16.7069C18.8946 16.5194 18.9999 16.2651 18.9999 15.9999C18.9999 15.7348 18.8946 15.4805 18.7071 15.2929L17.1211 13.7069C16.5585 13.1445 15.7956 12.8286 15.0001 12.8286C14.2046 12.8286 13.4417 13.1445 12.8791 13.7069L11.2931 15.2929C11.1109 15.4815 11.0101 15.7341 11.0124 15.9963C11.0147 16.2585 11.1199 16.5094 11.3053 16.6948C11.4907 16.8802 11.7415 16.9853 12.0037 16.9876C12.2659 16.9899 12.5185 16.8891 12.7071 16.7069L14.0001 15.4139V22.9999C14.0001 23.2652 14.1055 23.5195 14.293 23.7071C14.4805 23.8946 14.7349 23.9999 15.0001 23.9999C15.2653 23.9999 15.5197 23.8946 15.7072 23.7071C15.8947 23.5195 16.0001 23.2652 16.0001 22.9999V15.4139L17.2931 16.7069C17.4806 16.8944 17.7349 16.9997 18.0001 16.9997C18.2653 16.9997 18.5196 16.8944 18.7071 16.7069Z" fill="#374957"/>
</g>
<defs>
<clipPath id="clip0_119_13831">
<rect width="24" height="24" fill="white"/>
</clipPath>
</defs>
</svg>
