<svg width="24" height="24" viewBox="0 0 24 24" fill="none" xmlns="http://www.w3.org/2000/svg">
<g clip-path="url(#clip0_119_14079)">
<path d="M12.0002 1.99991C13.3267 2.00426 14.6392 2.27165 15.8617 2.7866C17.0842 3.30154 18.1924 4.05383 19.1222 4.99991H16.0002C15.735 4.99991 15.4807 5.10527 15.2931 5.2928C15.1056 5.48034 15.0002 5.73469 15.0002 5.99991C15.0002 6.26513 15.1056 6.51948 15.2931 6.70702C15.4807 6.89455 15.735 6.99991 16.0002 6.99991H20.1432C20.6357 6.99965 21.1078 6.80391 21.456 6.45572C21.8042 6.10752 22 5.63534 22.0002 5.14291V0.99991C22.0002 0.734693 21.8949 0.480339 21.7073 0.292803C21.5198 0.105267 21.2654 -9.02467e-05 21.0002 -9.02467e-05V-9.02467e-05C20.735 -9.02467e-05 20.4807 0.105267 20.2931 0.292803C20.1056 0.480339 20.0002 0.734693 20.0002 0.99991V3.07791C18.3474 1.58936 16.3128 0.59032 14.1243 0.192659C11.9358 -0.205002 9.67986 0.0144217 7.60902 0.826357C5.53818 1.63829 3.73425 3.01068 2.39924 4.78983C1.06424 6.56899 0.250875 8.68465 0.050233 10.8999C0.0373164 11.0392 0.0535488 11.1796 0.097896 11.3122C0.142243 11.4449 0.213733 11.5668 0.307809 11.6703C0.401886 11.7738 0.516487 11.8565 0.644311 11.9133C0.772135 11.97 0.910378 11.9995 1.05023 11.9999V11.9999C1.29482 12.003 1.53177 11.9147 1.71469 11.7524C1.89762 11.59 2.01335 11.3651 2.03923 11.1219C2.26185 8.63266 3.40721 6.31661 5.25031 4.62875C7.09342 2.94088 9.50105 2.0032 12.0002 1.99991Z" fill="#374957"/>
<path d="M22.9512 12.0002C22.7066 11.9971 22.4696 12.0854 22.2867 12.2478C22.1038 12.4102 21.988 12.635 21.9622 12.8782C21.7968 14.7814 21.0891 16.5973 19.9228 18.1104C18.7565 19.6235 17.1807 20.7703 15.3823 21.4148C13.5839 22.0592 11.6383 22.1743 9.7765 21.7463C7.91466 21.3183 6.21465 20.3653 4.87815 19.0002H8.00015C8.26537 19.0002 8.51972 18.8949 8.70726 18.7073C8.8948 18.5198 9.00015 18.2654 9.00015 18.0002C9.00015 17.735 8.8948 17.4806 8.70726 17.2931C8.51972 17.1056 8.26537 17.0002 8.00015 17.0002H3.85715C3.61325 17.0001 3.37172 17.048 3.14635 17.1413C2.92099 17.2346 2.71623 17.3714 2.54376 17.5438C2.3713 17.7163 2.23452 17.9211 2.14124 18.1464C2.04796 18.3718 2.00002 18.6133 2.00015 18.8572V23.0002C2.00015 23.2654 2.10551 23.5198 2.29305 23.7073C2.48058 23.8949 2.73494 24.0002 3.00015 24.0002C3.26537 24.0002 3.51972 23.8949 3.70726 23.7073C3.8948 23.5198 4.00015 23.2654 4.00015 23.0002V20.9222C5.65298 22.4108 7.68756 23.4098 9.87605 23.8075C12.0645 24.2051 14.3205 23.9857 16.3914 23.1738C18.4622 22.3618 20.2661 20.9895 21.6011 19.2103C22.9361 17.4311 23.7495 15.3155 23.9502 13.1002C23.9631 12.9609 23.9468 12.8205 23.9025 12.6879C23.8581 12.5552 23.7867 12.4333 23.6926 12.3298C23.5985 12.2263 23.4839 12.1436 23.3561 12.0868C23.2283 12.0301 23.09 12.0006 22.9502 12.0002H22.9512Z" fill="#374957"/>
</g>
<defs>
<clipPath id="clip0_119_14079">
<rect width="24" height="24" fill="white"/>
</clipPath>
</defs>
</svg>
