<svg width="24" height="24" viewBox="0 0 24 24" fill="none" xmlns="http://www.w3.org/2000/svg">
<path d="M0 12C0 10.895 0.895 10 2 10C3.105 10 4 10.895 4 12C4 13.105 3.105 14 2 14C0.895 14 0 13.105 0 12ZM19 3H5C2.717 3 0.726 4.542 0.158 6.751C0.02 7.286 0.342 7.831 0.877 7.968C1.416 8.106 1.958 7.784 2.094 7.249C2.435 5.925 3.63 5 5 5H19C20.654 5 22 6.346 22 8V16C22 17.654 20.654 19 19 19H5C3.63 19 2.435 18.075 2.094 16.751C1.957 16.217 1.414 15.894 0.877 16.031C0.342 16.169 0.02 16.714 0.158 17.249C0.726 19.458 2.717 21 5 21H19C21.757 21 24 18.757 24 16V8C24 5.243 21.757 3 19 3ZM17.828 9.6C18.127 9.597 18.348 9.772 18.458 10.011C18.593 10.303 18.874 10.5 19.196 10.5C19.776 10.5 20.166 9.903 19.93 9.373C19.571 8.569 18.774 7.995 17.828 8C16.559 8 15.528 9.031 15.528 10.3V13.7C15.528 14.968 16.559 16 17.828 16C18.774 16.004 19.571 15.43 19.93 14.627C20.166 14.098 19.776 13.5 19.196 13.5C18.874 13.5 18.593 13.697 18.458 13.989C18.348 14.228 18.127 14.403 17.828 14.4C17.442 14.4 17.128 14.086 17.128 13.7V10.3C17.128 9.914 17.442 9.6 17.828 9.6ZM8.945 12.533L9.674 14.928C9.836 15.461 9.437 16 8.88 16C8.511 16 8.186 15.756 8.083 15.402L7.385 13H6.601V15.2C6.601 15.642 6.243 16 5.801 16C5.359 16 5.001 15.642 5.001 15.2V9C5.001 8.448 5.449 8 6.001 8H7.368C8.652 8 9.824 8.908 9.981 10.182C10.101 11.152 9.661 12.023 8.946 12.533H8.945ZM8.4 10.5C8.4 10.004 7.996 9.6 7.5 9.6H6.6V11.4H7.5C7.996 11.4 8.4 10.996 8.4 10.5ZM13.7 9.6C14.142 9.6 14.5 9.242 14.5 8.8C14.5 8.358 14.142 8 13.7 8H12C11.448 8 11 8.448 11 9V15C11 15.552 11.448 16 12 16H13.7C14.142 16 14.5 15.642 14.5 15.2C14.5 14.758 14.142 14.4 13.7 14.4H12.599V12.849H13.7C14.142 12.849 14.5 12.491 14.5 12.049C14.5 11.607 14.142 11.249 13.7 11.249H12.599V9.599H13.7V9.6Z" fill="#374957"/>
</svg>
