<svg width="24" height="24" viewBox="0 0 24 24" fill="none" xmlns="http://www.w3.org/2000/svg">
<path d="M17.792 7.21215C17.3476 5.30143 16.2167 3.62059 14.6142 2.48913C13.0116 1.35767 11.0492 0.854462 9.09996 1.07516C7.1507 1.29586 5.35048 2.22508 4.04148 3.68619C2.73248 5.1473 2.00596 7.03844 2.00002 9.00015C1.99916 10.2785 2.30796 11.5381 2.90002 12.6711C1.82115 13.2493 0.966422 14.1714 0.471641 15.2909C-0.0231397 16.4105 -0.129593 17.6633 0.169193 18.8503C0.46798 20.0373 1.15487 21.0904 2.12073 21.8422C3.08658 22.5941 4.27601 23.0017 5.50002 23.0001H16C17.9591 22.9911 19.8468 22.2634 21.3051 20.9552C22.7634 19.6469 23.6909 17.8491 23.9119 15.9025C24.1328 13.9559 23.6318 11.9958 22.5038 10.3941C21.3758 8.79227 19.6992 7.66008 17.792 7.21215V7.21215ZM16 21.0001H5.50002C4.64845 21.0027 3.82531 20.6939 3.18554 20.1318C2.54577 19.5698 2.13351 18.7933 2.02634 17.9485C1.91917 17.1037 2.12449 16.2488 2.60366 15.5449C3.08282 14.8409 3.80278 14.3363 4.62802 14.1261C4.78673 14.0853 4.93297 14.0061 5.05387 13.8954C5.17476 13.7848 5.26661 13.6461 5.32133 13.4916C5.37605 13.3371 5.39197 13.1716 5.36768 13.0095C5.34338 12.8474 5.27963 12.6938 5.18202 12.5621C4.41317 11.5339 3.99844 10.2841 4.00002 9.00015C4.01143 7.48613 4.59481 6.0324 5.63316 4.9305C6.67152 3.8286 8.08807 3.15999 9.59874 3.05878C11.1094 2.95756 12.6025 3.43121 13.7786 4.38474C14.9546 5.33828 15.7267 6.70118 15.94 8.20015C15.9688 8.4178 16.0684 8.61994 16.2235 8.77536C16.3785 8.93079 16.5804 9.03086 16.798 9.06015C18.2968 9.27338 19.6596 10.0453 20.6132 11.2212C21.5667 12.397 22.0405 13.8899 21.9396 15.4004C21.8386 16.911 21.1704 18.3275 20.0688 19.366C18.9673 20.4045 17.5139 20.9883 16 21.0001V21.0001Z" fill="#374957"/>
</svg>
