<svg width="24" height="24" viewBox="0 0 24 24" fill="none" xmlns="http://www.w3.org/2000/svg">
<path d="M20.9999 12.4237V10.9997C20.9999 8.61275 20.0517 6.32356 18.3638 4.63573C16.676 2.94791 14.3868 1.99969 11.9999 1.99969C9.61294 1.99969 7.32376 2.94791 5.63593 4.63573C3.9481 6.32356 2.99989 8.61275 2.99989 10.9997V12.4237C1.95105 12.8855 1.09269 13.6936 0.568511 14.7128C0.0443322 15.7319 -0.113849 16.9001 0.120447 18.0219C0.354744 19.1438 0.967297 20.151 1.85556 20.8751C2.74382 21.5993 3.85388 21.9963 4.99989 21.9997C5.53032 21.9997 6.03903 21.789 6.4141 21.4139C6.78918 21.0388 6.99989 20.5301 6.99989 19.9997V13.9997C6.99989 13.4693 6.78918 12.9606 6.4141 12.5855C6.03903 12.2104 5.53032 11.9997 4.99989 11.9997V10.9997C4.99989 9.14318 5.73739 7.3627 7.05014 6.04995C8.3629 4.73719 10.1434 3.99969 11.9999 3.99969C13.8564 3.99969 15.6369 4.73719 16.9496 6.04995C18.2624 7.3627 18.9999 9.14318 18.9999 10.9997V11.9997C18.4695 11.9997 17.9607 12.2104 17.5857 12.5855C17.2106 12.9606 16.9999 13.4693 16.9999 13.9997V19.9997H13.9999C13.7347 19.9997 13.4803 20.1051 13.2928 20.2926C13.1052 20.4801 12.9999 20.7345 12.9999 20.9997C12.9999 21.2649 13.1052 21.5193 13.2928 21.7068C13.4803 21.8943 13.7347 21.9997 13.9999 21.9997H18.9999C20.1459 21.9963 21.256 21.5993 22.1442 20.8751C23.0325 20.151 23.645 19.1438 23.8793 18.0219C24.1136 16.9001 23.9554 15.7319 23.4313 14.7128C22.9071 13.6936 22.0487 12.8855 20.9999 12.4237V12.4237ZM4.99989 19.9997C4.20424 19.9997 3.44118 19.6836 2.87857 19.121C2.31596 18.5584 1.99989 17.7953 1.99989 16.9997C1.99989 16.204 2.31596 15.441 2.87857 14.8784C3.44118 14.3158 4.20424 13.9997 4.99989 13.9997V19.9997ZM18.9999 19.9997V13.9997C19.7955 13.9997 20.5586 14.3158 21.1212 14.8784C21.6838 15.441 21.9999 16.204 21.9999 16.9997C21.9999 17.7953 21.6838 18.5584 21.1212 19.121C20.5586 19.6836 19.7955 19.9997 18.9999 19.9997Z" fill="#374957"/>
</svg>
